<svg width="199" height="279" viewBox="0 0 199 279" fill="none" xmlns="http://www.w3.org/2000/svg">
<g filter="url(#filter0_d_419_26551)">
<path d="M0.253906 0H186.999V173.095C186.999 224.663 145.194 266.467 93.6263 266.467V266.467C42.0581 266.467 0.253906 224.663 0.253906 173.095V0Z" fill="#9831FF"/>
<path d="M0.753906 0.5H186.499V173.095C186.499 224.387 144.918 265.967 93.6263 265.967C42.3343 265.967 0.753906 224.387 0.753906 173.095V0.5Z" stroke="black"/>
</g>
<path d="M42.9263 191.518H38.3486V188.881H42.9263C43.675 188.881 44.2812 188.759 44.7451 188.515C45.2171 188.263 45.563 187.921 45.7827 187.49C46.0024 187.05 46.1123 186.55 46.1123 185.988C46.1123 185.443 46.0024 184.934 45.7827 184.462C45.563 183.99 45.2171 183.608 44.7451 183.315C44.2812 183.022 43.675 182.875 42.9263 182.875H39.4473V198H36.0903V180.227H42.9263C44.3097 180.227 45.4897 180.475 46.4663 180.971C47.451 181.459 48.1997 182.139 48.7124 183.01C49.2332 183.872 49.4937 184.857 49.4937 185.964C49.4937 187.111 49.2332 188.1 48.7124 188.93C48.1997 189.76 47.451 190.399 46.4663 190.847C45.4897 191.294 44.3097 191.518 42.9263 191.518ZM52.1304 180.227H58.5879C59.9388 180.227 61.0985 180.43 62.0669 180.837C63.0353 181.244 63.7799 181.846 64.3008 182.644C64.8216 183.441 65.082 184.422 65.082 185.585C65.082 186.505 64.9193 187.303 64.5938 187.978C64.2682 188.653 63.8084 189.219 63.2144 189.675C62.6284 190.131 61.9367 190.489 61.1392 190.749L60.0894 191.286H54.3887L54.3643 188.637H58.6245C59.3162 188.637 59.89 188.515 60.3457 188.271C60.8014 188.027 61.1432 187.689 61.3711 187.258C61.6071 186.826 61.7251 186.334 61.7251 185.781C61.7251 185.187 61.6112 184.674 61.3833 184.243C61.1554 183.803 60.8096 183.465 60.3457 183.229C59.8818 182.993 59.2959 182.875 58.5879 182.875H55.4873V198H52.1304V180.227ZM62.1646 198L58.0508 190.041L61.603 190.029L65.7656 197.829V198H62.1646ZM82.416 188.662V189.577C82.416 190.92 82.237 192.128 81.8789 193.203C81.5208 194.269 81.0122 195.176 80.353 195.925C79.6938 196.674 78.9085 197.247 77.9971 197.646C77.0856 198.045 76.0724 198.244 74.9575 198.244C73.8589 198.244 72.8498 198.045 71.9302 197.646C71.0187 197.247 70.2293 196.674 69.562 195.925C68.8947 195.176 68.3779 194.269 68.0117 193.203C67.6455 192.128 67.4624 190.92 67.4624 189.577V188.662C67.4624 187.311 67.6455 186.102 68.0117 185.036C68.3779 183.97 68.8906 183.063 69.5498 182.314C70.209 181.557 70.9943 180.979 71.9058 180.581C72.8254 180.182 73.8345 179.982 74.9331 179.982C76.048 179.982 77.0612 180.182 77.9727 180.581C78.8841 180.979 79.6694 181.557 80.3286 182.314C80.9959 183.063 81.5086 183.97 81.8667 185.036C82.2329 186.102 82.416 187.311 82.416 188.662ZM79.0225 189.577V188.637C79.0225 187.669 78.9329 186.818 78.7539 186.086C78.5749 185.345 78.3104 184.723 77.9604 184.218C77.6105 183.714 77.1792 183.335 76.6665 183.083C76.1538 182.823 75.576 182.692 74.9331 182.692C74.2821 182.692 73.7043 182.823 73.1997 183.083C72.7033 183.335 72.2801 183.714 71.9302 184.218C71.5802 184.723 71.3117 185.345 71.1245 186.086C70.9455 186.818 70.856 187.669 70.856 188.637V189.577C70.856 190.537 70.9455 191.388 71.1245 192.128C71.3117 192.869 71.5802 193.496 71.9302 194.008C72.2882 194.513 72.7196 194.895 73.2241 195.156C73.7287 195.416 74.3065 195.546 74.9575 195.546C75.6086 195.546 76.1864 195.416 76.6909 195.156C77.1955 194.895 77.6187 194.513 77.9604 194.008C78.3104 193.496 78.5749 192.869 78.7539 192.128C78.9329 191.388 79.0225 190.537 79.0225 189.577ZM100.788 193.386C100.788 193.044 100.735 192.739 100.629 192.47C100.531 192.194 100.348 191.945 100.08 191.726C99.8192 191.498 99.4489 191.278 98.9688 191.066C98.4967 190.847 97.8864 190.619 97.1377 190.383C96.3076 190.122 95.5345 189.829 94.8184 189.504C94.1022 189.178 93.4715 188.8 92.9263 188.369C92.3892 187.937 91.9701 187.441 91.6689 186.879C91.3678 186.31 91.2173 185.651 91.2173 184.902C91.2173 184.169 91.3719 183.502 91.6812 182.9C91.9985 182.298 92.4461 181.781 93.0239 181.35C93.6017 180.91 94.2812 180.572 95.0625 180.336C95.8519 180.1 96.7227 179.982 97.6748 179.982C98.9932 179.982 100.132 180.222 101.093 180.703C102.061 181.183 102.81 181.834 103.339 182.656C103.868 183.478 104.132 184.401 104.132 185.427H100.788C100.788 184.873 100.67 184.385 100.434 183.962C100.206 183.539 99.8558 183.205 99.3838 182.961C98.9199 182.717 98.334 182.595 97.626 182.595C96.9424 182.595 96.3727 182.696 95.917 182.9C95.4694 183.103 95.1317 183.38 94.9038 183.73C94.6841 184.08 94.5742 184.471 94.5742 184.902C94.5742 185.227 94.6515 185.52 94.8062 185.781C94.9608 186.033 95.1927 186.273 95.502 186.501C95.8112 186.721 96.1937 186.928 96.6494 187.124C97.1133 187.311 97.6504 187.498 98.2607 187.685C99.2373 187.978 100.092 188.304 100.824 188.662C101.565 189.02 102.179 189.427 102.667 189.882C103.164 190.338 103.534 190.851 103.778 191.42C104.031 191.99 104.157 192.637 104.157 193.361C104.157 194.126 104.006 194.81 103.705 195.412C103.404 196.014 102.973 196.527 102.411 196.95C101.85 197.373 101.174 197.695 100.385 197.915C99.6035 198.134 98.7287 198.244 97.7603 198.244C96.8976 198.244 96.0431 198.13 95.1968 197.902C94.3586 197.666 93.5977 197.316 92.9141 196.853C92.2305 196.381 91.6852 195.786 91.2783 195.07C90.8714 194.346 90.668 193.5 90.668 192.531H94.0371C94.0371 193.093 94.1266 193.573 94.3057 193.972C94.4928 194.362 94.7533 194.684 95.0869 194.936C95.4287 195.18 95.8275 195.359 96.2832 195.473C96.7389 195.587 97.2313 195.644 97.7603 195.644C98.4438 195.644 99.0054 195.55 99.4448 195.363C99.8924 195.168 100.226 194.899 100.446 194.558C100.674 194.216 100.788 193.825 100.788 193.386ZM116.632 180.227H119.989V192.031C119.989 193.39 119.696 194.533 119.11 195.461C118.524 196.381 117.727 197.076 116.718 197.548C115.709 198.012 114.561 198.244 113.275 198.244C111.973 198.244 110.814 198.012 109.796 197.548C108.779 197.076 107.982 196.381 107.404 195.461C106.826 194.533 106.537 193.39 106.537 192.031V180.227H109.894V192.031C109.894 192.861 110.032 193.54 110.309 194.069C110.586 194.59 110.976 194.977 111.481 195.229C111.986 195.481 112.584 195.607 113.275 195.607C113.975 195.607 114.573 195.481 115.07 195.229C115.574 194.977 115.961 194.59 116.229 194.069C116.498 193.54 116.632 192.861 116.632 192.031V180.227ZM129.987 190.078H125.446L125.421 187.709H129.315C129.983 187.709 130.54 187.616 130.988 187.429C131.435 187.242 131.773 186.969 132.001 186.611C132.237 186.253 132.355 185.817 132.355 185.305C132.355 184.735 132.245 184.271 132.025 183.913C131.814 183.555 131.48 183.295 131.024 183.132C130.569 182.961 129.991 182.875 129.291 182.875H126.532V198H123.175V180.227H129.291C130.3 180.227 131.199 180.324 131.989 180.52C132.786 180.707 133.462 181 134.015 181.398C134.569 181.797 134.988 182.298 135.272 182.9C135.565 183.502 135.712 184.218 135.712 185.048C135.712 185.781 135.541 186.456 135.199 187.075C134.866 187.685 134.349 188.181 133.649 188.564C132.957 188.946 132.078 189.166 131.012 189.223L129.987 190.078ZM129.84 198H124.457L125.861 195.363H129.84C130.508 195.363 131.057 195.253 131.488 195.034C131.928 194.814 132.253 194.513 132.465 194.13C132.685 193.74 132.794 193.292 132.794 192.788C132.794 192.234 132.697 191.754 132.501 191.347C132.314 190.94 132.013 190.627 131.598 190.407C131.191 190.188 130.654 190.078 129.987 190.078H126.496L126.52 187.709H130.963L131.732 188.625C132.758 188.633 133.592 188.837 134.235 189.235C134.886 189.634 135.366 190.147 135.675 190.773C135.985 191.4 136.139 192.076 136.139 192.8C136.139 193.939 135.891 194.895 135.395 195.668C134.906 196.442 134.19 197.023 133.246 197.414C132.31 197.805 131.175 198 129.84 198ZM148.346 193.386C148.346 193.044 148.293 192.739 148.188 192.47C148.09 192.194 147.907 191.945 147.638 191.726C147.378 191.498 147.007 191.278 146.527 191.066C146.055 190.847 145.445 190.619 144.696 190.383C143.866 190.122 143.093 189.829 142.377 189.504C141.661 189.178 141.03 188.8 140.485 188.369C139.948 187.937 139.529 187.441 139.228 186.879C138.926 186.31 138.776 185.651 138.776 184.902C138.776 184.169 138.931 183.502 139.24 182.9C139.557 182.298 140.005 181.781 140.583 181.35C141.16 180.91 141.84 180.572 142.621 180.336C143.41 180.1 144.281 179.982 145.233 179.982C146.552 179.982 147.691 180.222 148.651 180.703C149.62 181.183 150.368 181.834 150.897 182.656C151.426 183.478 151.691 184.401 151.691 185.427H148.346C148.346 184.873 148.228 184.385 147.992 183.962C147.764 183.539 147.414 183.205 146.942 182.961C146.479 182.717 145.893 182.595 145.185 182.595C144.501 182.595 143.931 182.696 143.476 182.9C143.028 183.103 142.69 183.38 142.462 183.73C142.243 184.08 142.133 184.471 142.133 184.902C142.133 185.227 142.21 185.52 142.365 185.781C142.519 186.033 142.751 186.273 143.061 186.501C143.37 186.721 143.752 186.928 144.208 187.124C144.672 187.311 145.209 187.498 145.819 187.685C146.796 187.978 147.65 188.304 148.383 188.662C149.123 189.02 149.738 189.427 150.226 189.882C150.722 190.338 151.093 190.851 151.337 191.42C151.589 191.99 151.715 192.637 151.715 193.361C151.715 194.126 151.565 194.81 151.264 195.412C150.963 196.014 150.531 196.527 149.97 196.95C149.408 197.373 148.733 197.695 147.943 197.915C147.162 198.134 146.287 198.244 145.319 198.244C144.456 198.244 143.602 198.13 142.755 197.902C141.917 197.666 141.156 197.316 140.473 196.853C139.789 196.381 139.244 195.786 138.837 195.07C138.43 194.346 138.227 193.5 138.227 192.531H141.596C141.596 193.093 141.685 193.573 141.864 193.972C142.051 194.362 142.312 194.684 142.646 194.936C142.987 195.18 143.386 195.359 143.842 195.473C144.298 195.587 144.79 195.644 145.319 195.644C146.002 195.644 146.564 195.55 147.003 195.363C147.451 195.168 147.785 194.899 148.004 194.558C148.232 194.216 148.346 193.825 148.346 193.386Z" fill="white"/>
<g filter="url(#filter1_d_419_26551)">
<ellipse cx="93.7818" cy="80.7193" rx="62.3521" ry="62.3316" fill="white"/>
</g>
<g clip-path="url(#clip0_419_26551)">
<path d="M117.439 101.133H69.8173C68.8099 101.133 67.9857 101.957 67.9857 102.964V106.626C67.9857 107.633 68.8099 108.457 69.8173 108.457H117.439C118.446 108.457 119.27 107.633 119.27 106.626V102.964C119.27 101.957 118.446 101.133 117.439 101.133ZM124.765 64.5132C121.731 64.5132 119.27 66.9735 119.27 70.0061C119.27 70.8186 119.453 71.5739 119.774 72.272L111.486 77.2385C109.723 78.2914 107.445 77.6963 106.426 75.9111L97.0966 59.5924C98.3214 58.5853 99.1228 57.0748 99.1228 55.3582C99.1228 52.3256 96.6616 49.8652 93.628 49.8652C90.5944 49.8652 88.1332 52.3256 88.1332 55.3582C88.1332 57.0748 88.9345 58.5853 90.1594 59.5924L80.8297 75.9111C79.8109 77.6963 77.5214 78.2914 75.7699 77.2385L67.4934 72.272C67.8025 71.5854 67.9971 70.8186 67.9971 70.0061C67.9971 66.9735 65.5359 64.5132 62.5023 64.5132C59.4687 64.5132 56.9961 66.9735 56.9961 70.0061C56.9961 73.0387 59.4573 75.4991 62.4909 75.4991C62.7885 75.4991 63.0861 75.4533 63.3723 75.4075L71.6488 97.471H115.607L123.884 75.4075C124.17 75.4533 124.467 75.4991 124.765 75.4991C127.799 75.4991 130.26 73.0387 130.26 70.0061C130.26 66.9735 127.799 64.5132 124.765 64.5132Z" fill="black"/>
</g>
<defs>
<filter id="filter0_d_419_26551" x="0.253906" y="0" width="198.746" height="278.468" filterUnits="userSpaceOnUse" color-interpolation-filters="sRGB">
<feFlood flood-opacity="0" result="BackgroundImageFix"/>
<feColorMatrix in="SourceAlpha" type="matrix" values="0 0 0 0 0 0 0 0 0 0 0 0 0 0 0 0 0 0 127 0" result="hardAlpha"/>
<feOffset dx="8" dy="8"/>
<feGaussianBlur stdDeviation="2"/>
<feComposite in2="hardAlpha" operator="out"/>
<feColorMatrix type="matrix" values="0 0 0 0 0 0 0 0 0 0 0 0 0 0 0 0 0 0 0.25 0"/>
<feBlend mode="normal" in2="BackgroundImageFix" result="effect1_dropShadow_419_26551"/>
<feBlend mode="normal" in="SourceGraphic" in2="effect1_dropShadow_419_26551" result="shape"/>
</filter>
<filter id="filter1_d_419_26551" x="31.4297" y="18.3877" width="134.703" height="133.663" filterUnits="userSpaceOnUse" color-interpolation-filters="sRGB">
<feFlood flood-opacity="0" result="BackgroundImageFix"/>
<feColorMatrix in="SourceAlpha" type="matrix" values="0 0 0 0 0 0 0 0 0 0 0 0 0 0 0 0 0 0 127 0" result="hardAlpha"/>
<feOffset dx="6" dy="5"/>
<feGaussianBlur stdDeviation="2"/>
<feComposite in2="hardAlpha" operator="out"/>
<feColorMatrix type="matrix" values="0 0 0 0 0 0 0 0 0 0 0 0 0 0 0 0 0 0 0.25 0"/>
<feBlend mode="normal" in2="BackgroundImageFix" result="effect1_dropShadow_419_26551"/>
<feBlend mode="normal" in="SourceGraphic" in2="effect1_dropShadow_419_26551" result="shape"/>
</filter>
<clipPath id="clip0_419_26551">
<rect width="73.2638" height="58.5917" fill="white" transform="translate(56.9961 49.8652)"/>
</clipPath>
</defs>
</svg>
