<svg width="186" height="159" viewBox="0 0 186 159" fill="none" xmlns="http://www.w3.org/2000/svg">
<path d="M90.9983 77.9997C110.819 77.9997 126.887 61.5088 126.887 41.1663C126.887 20.8239 110.819 4.33301 90.9983 4.33301C71.1774 4.33301 55.1094 20.8239 55.1094 41.1663C55.1094 61.5088 71.1774 77.9997 90.9983 77.9997Z" fill="#F4900C"/>
<path d="M90.9983 73.6667C110.819 73.6667 126.887 57.1758 126.887 36.8333C126.887 16.4908 110.819 0 90.9983 0C71.1774 0 55.1094 16.4908 55.1094 36.8333C55.1094 57.1758 71.1774 73.6667 90.9983 73.6667Z" fill="#FFCC4D"/>
<path d="M91.0946 66.8014C107.418 66.8014 120.65 53.2207 120.65 36.4681C120.65 19.7155 107.418 6.13477 91.0946 6.13477C74.7715 6.13477 61.5391 19.7155 61.5391 36.4681C61.5391 53.2207 74.7715 66.8014 91.0946 66.8014Z" fill="#FFAC33"/>
<rect x="77.4531" y="39.3828" width="28.3241" height="2.54902" fill="#F4900C"/>
<rect x="105.777" y="34.2842" width="5.09805" height="27.0926" rx="2.54903" transform="rotate(90 105.777 34.2842)" fill="#FFD983"/>
<rect x="76.2227" y="47.0293" width="6.15741" height="11.4706" rx="3.0787" fill="#F4900C"/>
<rect x="99.6211" y="49.5791" width="6.15741" height="8.92155" rx="3.0787" fill="#F4900C"/>
<rect x="99.6211" y="15.167" width="6.15741" height="42.0588" rx="3.0787" fill="#FFD983"/>
<rect x="76.2227" y="15.167" width="6.15741" height="42.0588" rx="3.0787" fill="#FFD983"/>
<path d="M118.998 112C138.819 112 154.887 95.5088 154.887 75.1663C154.887 54.8239 138.819 38.333 118.998 38.333C99.1774 38.333 83.1094 54.8239 83.1094 75.1663C83.1094 95.5088 99.1774 112 118.998 112Z" fill="#F4900C"/>
<path d="M118.998 107.667C138.819 107.667 154.887 91.1758 154.887 70.8333C154.887 50.4908 138.819 34 118.998 34C99.1774 34 83.1094 50.4908 83.1094 70.8333C83.1094 91.1758 99.1774 107.667 118.998 107.667Z" fill="#FFCC4D"/>
<path d="M119.095 100.801C135.418 100.801 148.65 87.2207 148.65 70.4681C148.65 53.7155 135.418 40.1348 119.095 40.1348C102.772 40.1348 89.5391 53.7155 89.5391 70.4681C89.5391 87.2207 102.772 100.801 119.095 100.801Z" fill="#FFAC33"/>
<rect x="105.453" y="73.3828" width="28.3241" height="2.54902" fill="#F4900C"/>
<rect x="133.777" y="68.2842" width="5.09805" height="27.0926" rx="2.54903" transform="rotate(90 133.777 68.2842)" fill="#FFD983"/>
<rect x="104.223" y="81.0293" width="6.15741" height="11.4706" rx="3.0787" fill="#F4900C"/>
<rect x="127.621" y="83.5791" width="6.15741" height="8.92155" rx="3.0787" fill="#F4900C"/>
<rect x="127.621" y="49.167" width="6.15741" height="42.0588" rx="3.0787" fill="#FFD983"/>
<rect x="104.223" y="49.167" width="6.15741" height="42.0588" rx="3.0787" fill="#FFD983"/>
<path d="M147.998 159C167.819 159 183.887 142.509 183.887 122.166C183.887 101.824 167.819 85.333 147.998 85.333C128.177 85.333 112.109 101.824 112.109 122.166C112.109 142.509 128.177 159 147.998 159Z" fill="#F4900C"/>
<path d="M147.998 154.667C167.819 154.667 183.887 138.176 183.887 117.833C183.887 97.4908 167.819 81 147.998 81C128.177 81 112.109 97.4908 112.109 117.833C112.109 138.176 128.177 154.667 147.998 154.667Z" fill="#FFCC4D"/>
<path d="M148.095 147.801C164.418 147.801 177.65 134.221 177.65 117.468C177.65 100.715 164.418 87.1348 148.095 87.1348C131.772 87.1348 118.539 100.715 118.539 117.468C118.539 134.221 131.772 147.801 148.095 147.801Z" fill="#FFAC33"/>
<rect x="134.453" y="120.383" width="28.3241" height="2.54902" fill="#F4900C"/>
<rect x="162.777" y="115.284" width="5.09805" height="27.0926" rx="2.54903" transform="rotate(90 162.777 115.284)" fill="#FFD983"/>
<rect x="133.223" y="128.029" width="6.15741" height="11.4706" rx="3.0787" fill="#F4900C"/>
<rect x="156.621" y="130.579" width="6.15741" height="8.92155" rx="3.0787" fill="#F4900C"/>
<rect x="156.621" y="96.167" width="6.15741" height="42.0588" rx="3.0787" fill="#FFD983"/>
<rect x="133.223" y="96.167" width="6.15741" height="42.0588" rx="3.0787" fill="#FFD983"/>
<path d="M60.9983 112C80.8191 112 96.8871 95.5088 96.8871 75.1663C96.8871 54.8239 80.8191 38.333 60.9983 38.333C41.1774 38.333 25.1094 54.8239 25.1094 75.1663C25.1094 95.5088 41.1774 112 60.9983 112Z" fill="#F4900C"/>
<path d="M60.9983 107.667C80.8191 107.667 96.8871 91.1758 96.8871 70.8333C96.8871 50.4908 80.8191 34 60.9983 34C41.1774 34 25.1094 50.4908 25.1094 70.8333C25.1094 91.1758 41.1774 107.667 60.9983 107.667Z" fill="#FFCC4D"/>
<path d="M61.0946 100.801C77.4177 100.801 90.6502 87.2207 90.6502 70.4681C90.6502 53.7155 77.4177 40.1348 61.0946 40.1348C44.7715 40.1348 31.5391 53.7155 31.5391 70.4681C31.5391 87.2207 44.7715 100.801 61.0946 100.801Z" fill="#FFAC33"/>
<rect x="47.4531" y="73.3828" width="28.3241" height="2.54902" fill="#F4900C"/>
<rect x="75.7773" y="68.2842" width="5.09805" height="27.0926" rx="2.54903" transform="rotate(90 75.7773 68.2842)" fill="#FFD983"/>
<rect x="46.2227" y="81.0293" width="6.15741" height="11.4706" rx="3.0787" fill="#F4900C"/>
<rect x="69.6211" y="83.5791" width="6.15741" height="8.92155" rx="3.0787" fill="#F4900C"/>
<rect x="69.6211" y="49.167" width="6.15741" height="42.0588" rx="3.0787" fill="#FFD983"/>
<rect x="46.2227" y="49.167" width="6.15741" height="42.0588" rx="3.0787" fill="#FFD983"/>
<path d="M40.5 159C61.6249 159 78.75 141.452 78.75 119.806C78.75 98.1593 61.6249 80.6113 40.5 80.6113C19.3751 80.6113 2.25 98.1593 2.25 119.806C2.25 141.452 19.3751 159 40.5 159Z" fill="#F4900C"/>
<path d="M40.5 154.389C61.6249 154.389 78.75 136.841 78.75 115.194C78.75 93.5479 61.6249 76 40.5 76C19.3751 76 2.25 93.5479 2.25 115.194C2.25 136.841 19.3751 154.389 40.5 154.389Z" fill="#FFCC4D"/>
<path d="M40.6016 147.084C57.9985 147.084 72.1016 132.633 72.1016 114.806C72.1016 96.9796 57.9985 82.5283 40.6016 82.5283C23.2046 82.5283 9.10156 96.9796 9.10156 114.806C9.10156 132.633 23.2046 147.084 40.6016 147.084Z" fill="#FFAC33"/>
<rect x="26.0625" y="117.906" width="30.1875" height="2.71242" fill="#F4900C"/>
<rect x="56.25" y="112.481" width="5.42485" height="28.875" rx="2.71243" transform="rotate(90 56.25 112.481)" fill="#FFD983"/>
<rect x="24.75" y="126.044" width="6.5625" height="12.2059" rx="3.28125" fill="#F4900C"/>
<rect x="49.6875" y="128.756" width="6.5625" height="9.49345" rx="3.28125" fill="#F4900C"/>
<rect x="49.6875" y="92.1387" width="6.5625" height="44.7549" rx="3.28125" fill="#FFD983"/>
<rect x="24.75" y="92.1387" width="6.5625" height="44.7549" rx="3.28125" fill="#FFD983"/>
<path d="M92.9983 159C112.819 159 128.887 142.509 128.887 122.166C128.887 101.824 112.819 85.333 92.9983 85.333C73.1774 85.333 57.1094 101.824 57.1094 122.166C57.1094 142.509 73.1774 159 92.9983 159Z" fill="#F4900C"/>
<path d="M92.9983 154.667C112.819 154.667 128.887 138.176 128.887 117.833C128.887 97.4908 112.819 81 92.9983 81C73.1774 81 57.1094 97.4908 57.1094 117.833C57.1094 138.176 73.1774 154.667 92.9983 154.667Z" fill="#FFCC4D"/>
<path d="M93.0946 147.801C109.418 147.801 122.65 134.221 122.65 117.468C122.65 100.715 109.418 87.1348 93.0946 87.1348C76.7715 87.1348 63.5391 100.715 63.5391 117.468C63.5391 134.221 76.7715 147.801 93.0946 147.801Z" fill="#FFAC33"/>
<rect x="79.4531" y="120.383" width="28.3241" height="2.54902" fill="#F4900C"/>
<rect x="107.777" y="115.284" width="5.09805" height="27.0926" rx="2.54903" transform="rotate(90 107.777 115.284)" fill="#FFD983"/>
<rect x="78.2227" y="128.029" width="6.15741" height="11.4706" rx="3.0787" fill="#F4900C"/>
<rect x="101.621" y="130.579" width="6.15741" height="8.92155" rx="3.0787" fill="#F4900C"/>
<rect x="101.621" y="96.167" width="6.15741" height="42.0588" rx="3.0787" fill="#FFD983"/>
<rect x="78.2227" y="96.167" width="6.15741" height="42.0588" rx="3.0787" fill="#FFD983"/>
</svg>
