<svg width="54" height="54" viewBox="0 0 54 54" fill="none" xmlns="http://www.w3.org/2000/svg">
<g clip-path="url(#clip0_436_3104)">
<path d="M27.3644 53.0696C41.1581 53.0696 52.3401 41.8876 52.3401 28.0939C52.3401 14.3002 41.1581 3.11816 27.3644 3.11816C13.5707 3.11816 2.38867 14.3002 2.38867 28.0939C2.38867 41.8876 13.5707 53.0696 27.3644 53.0696Z" fill="#F4900C"/>
<path d="M27.3644 50.1312C41.1581 50.1312 52.3401 38.9491 52.3401 25.1554C52.3401 11.3617 41.1581 0.179688 27.3644 0.179688C13.5707 0.179688 2.38867 11.3617 2.38867 25.1554C2.38867 38.9491 13.5707 50.1312 27.3644 50.1312Z" fill="#FFCC4D"/>
<path d="M27.4315 45.4763C38.7911 45.4763 47.9998 36.2676 47.9998 24.9081C47.9998 13.5486 38.7911 4.33984 27.4315 4.33984C16.072 4.33984 6.86328 13.5486 6.86328 24.9081C6.86328 36.2676 16.072 45.4763 27.4315 45.4763Z" fill="#FFAC33"/>
<rect x="17.9375" y="26.8838" width="19.7112" height="1.72842" fill="#F4900C"/>
<rect x="37.6426" y="23.4258" width="3.45686" height="18.8542" rx="1.72843" transform="rotate(90 37.6426 23.4258)" fill="#FFD983"/>
<rect x="17.0781" y="32.0674" width="4.28505" height="7.77791" rx="2.14253" fill="#F4900C"/>
<rect x="33.3613" y="33.7969" width="4.28505" height="6.04948" rx="2.14253" fill="#F4900C"/>
<rect x="33.3613" y="10.4629" width="4.28505" height="28.519" rx="2.14253" fill="#FFD983"/>
<rect x="17.0781" y="10.4629" width="4.28505" height="28.519" rx="2.14253" fill="#FFD983"/>
</g>
<defs>
<clipPath id="clip0_436_3104">
<rect width="52.8898" height="52.8898" fill="white" transform="translate(0.917969 0.179688)"/>
</clipPath>
</defs>
</svg>
