<svg width="232" height="128" viewBox="0 0 232 128" fill="none" xmlns="http://www.w3.org/2000/svg">
<path d="M175.998 128C205.208 128 228.887 103.898 228.887 74.1663C228.887 44.435 205.208 20.333 175.998 20.333C146.789 20.333 123.109 44.435 123.109 74.1663C123.109 103.898 146.789 128 175.998 128Z" fill="#F4900C"/>
<path d="M175.998 121.667C205.208 121.667 228.887 97.5647 228.887 67.8333C228.887 38.102 205.208 14 175.998 14C146.789 14 123.109 38.102 123.109 67.8333C123.109 97.5647 146.789 121.667 175.998 121.667Z" fill="#FFCC4D"/>
<path d="M176.141 111.632C200.197 111.632 219.697 91.7838 219.697 67.2992C219.697 42.8145 200.197 22.9658 176.141 22.9658C152.086 22.9658 132.586 42.8145 132.586 67.2992C132.586 91.7838 152.086 111.632 176.141 111.632Z" fill="#FFAC33"/>
<rect x="156.039" y="71.5596" width="41.7407" height="3.72549" fill="#F4900C"/>
<rect x="197.777" y="64.1084" width="7.45099" height="39.9259" rx="3.7255" transform="rotate(90 197.777 64.1084)" fill="#FFD983"/>
<rect x="154.223" y="82.7354" width="9.07408" height="16.7647" rx="4.53704" fill="#F4900C"/>
<rect x="188.703" y="86.4609" width="9.07408" height="13.0392" rx="4.53704" fill="#F4900C"/>
<rect x="188.703" y="36.167" width="9.07408" height="61.4706" rx="4.53704" fill="#FFD983"/>
<rect x="154.223" y="36.167" width="9.07408" height="61.4706" rx="4.53704" fill="#FFD983"/>
<path d="M55.9983 128C85.208 128 108.887 103.898 108.887 74.1663C108.887 44.435 85.208 20.333 55.9983 20.333C26.7885 20.333 3.10938 44.435 3.10938 74.1663C3.10938 103.898 26.7885 128 55.9983 128Z" fill="#F4900C"/>
<path d="M55.9983 121.667C85.208 121.667 108.887 97.5647 108.887 67.8333C108.887 38.102 85.208 14 55.9983 14C26.7885 14 3.10938 38.102 3.10938 67.8333C3.10938 97.5647 26.7885 121.667 55.9983 121.667Z" fill="#FFCC4D"/>
<path d="M56.1415 111.632C80.1966 111.632 99.6971 91.7838 99.6971 67.2992C99.6971 42.8145 80.1966 22.9658 56.1415 22.9658C32.0864 22.9658 12.5859 42.8145 12.5859 67.2992C12.5859 91.7838 32.0864 111.632 56.1415 111.632Z" fill="#FFAC33"/>
<rect x="36.0391" y="71.5596" width="41.7407" height="3.72549" fill="#F4900C"/>
<rect x="77.7773" y="64.1084" width="7.45099" height="39.9259" rx="3.7255" transform="rotate(90 77.7773 64.1084)" fill="#FFD983"/>
<rect x="34.2227" y="82.7354" width="9.07408" height="16.7647" rx="4.53704" fill="#F4900C"/>
<rect x="68.7031" y="86.4609" width="9.07408" height="13.0392" rx="4.53704" fill="#F4900C"/>
<rect x="68.7031" y="36.167" width="9.07408" height="61.4706" rx="4.53704" fill="#FFD983"/>
<rect x="34.2227" y="36.167" width="9.07408" height="61.4706" rx="4.53704" fill="#FFD983"/>
<g clip-path="url(#clip0_577_4027)">
<path d="M113 128C145.861 128 172.5 100.938 172.5 67.5558C172.5 34.1732 145.861 7.11133 113 7.11133C80.1391 7.11133 53.5 34.1732 53.5 67.5558C53.5 100.938 80.1391 128 113 128Z" fill="#F4900C"/>
<path d="M113 120.889C145.861 120.889 172.5 93.827 172.5 60.4444C172.5 27.0619 145.861 0 113 0C80.1391 0 53.5 27.0619 53.5 60.4444C53.5 93.827 80.1391 120.889 113 120.889Z" fill="#FFCC4D"/>
<path d="M113.156 109.623C140.218 109.623 162.156 87.3367 162.156 59.8452C162.156 32.3537 140.218 10.0674 113.156 10.0674C86.0943 10.0674 64.1562 32.3537 64.1562 59.8452C64.1562 87.3367 86.0943 109.623 113.156 109.623Z" fill="#FFAC33"/>
<rect x="90.543" y="64.627" width="46.9583" height="4.18301" fill="#F4900C"/>
<rect x="137.5" y="56.2607" width="8.36603" height="44.9167" rx="4.18301" transform="rotate(90 137.5 56.2607)" fill="#FFD983"/>
<rect x="88.5" y="77.1758" width="10.2083" height="18.8235" rx="5.10417" fill="#F4900C"/>
<rect x="127.293" y="81.3594" width="10.2083" height="14.6405" rx="5.10417" fill="#F4900C"/>
<rect x="127.293" y="24.8887" width="10.2083" height="69.0196" rx="5.10417" fill="#FFD983"/>
<rect x="88.5" y="24.8887" width="10.2083" height="69.0196" rx="5.10417" fill="#FFD983"/>
</g>
<defs>
<clipPath id="clip0_577_4027">
<rect width="126" height="128" fill="white" transform="translate(50)"/>
</clipPath>
</defs>
</svg>
