<svg width="165" height="44" viewBox="0 0 165 44" fill="none" xmlns="http://www.w3.org/2000/svg">
<path d="M64.335 29.6738H60.46C60.1433 29.6738 59.91 29.6072 59.76 29.4738C59.6266 29.3238 59.56 29.0905 59.56 28.7738V12.5738C59.56 12.2572 59.6266 12.0322 59.76 11.8988C59.91 11.7488 60.1433 11.6738 60.46 11.6738H64.335C64.6516 11.6738 64.8766 11.7488 65.01 11.8988C65.16 12.0322 65.235 12.2572 65.235 12.5738V17.9988H69.41V12.5738C69.41 12.2572 69.4766 12.0322 69.61 11.8988C69.76 11.7488 69.9933 11.6738 70.31 11.6738H74.185C74.5016 11.6738 74.7266 11.7488 74.86 11.8988C75.01 12.0322 75.085 12.2572 75.085 12.5738V28.7738C75.085 29.0905 75.01 29.3238 74.86 29.4738C74.7266 29.6072 74.5016 29.6738 74.185 29.6738H70.31C69.9933 29.6738 69.76 29.6072 69.61 29.4738C69.4766 29.3238 69.41 29.0905 69.41 28.7738V23.2238H65.235V28.7738C65.235 29.0905 65.16 29.3238 65.01 29.4738C64.8766 29.6072 64.6516 29.6738 64.335 29.6738ZM93.7797 24.9488C93.7797 25.7155 93.663 26.4155 93.4297 27.0488C93.213 27.6655 92.813 28.1988 92.2297 28.6488C91.663 29.0822 90.8714 29.4238 89.8547 29.6738C88.8547 29.9238 87.5797 30.0488 86.0297 30.0488C84.4797 30.0488 83.1964 29.9238 82.1797 29.6738C81.163 29.4238 80.363 29.0822 79.7797 28.6488C79.213 28.1988 78.813 27.6655 78.5797 27.0488C78.363 26.4155 78.2547 25.7155 78.2547 24.9488V16.4238C78.2547 15.6572 78.363 14.9655 78.5797 14.3488C78.813 13.7155 79.213 13.1738 79.7797 12.7238C80.363 12.2738 81.163 11.9238 82.1797 11.6738C83.1964 11.4238 84.4797 11.2988 86.0297 11.2988C87.5797 11.2988 88.8547 11.4238 89.8547 11.6738C90.8714 11.9238 91.663 12.2738 92.2297 12.7238C92.813 13.1738 93.213 13.7155 93.4297 14.3488C93.663 14.9655 93.7797 15.6572 93.7797 16.4238V24.9488ZM83.9297 24.0488C83.9297 24.3822 84.0547 24.6655 84.3047 24.8988C84.5547 25.1155 85.1297 25.2238 86.0297 25.2238C86.9297 25.2238 87.5047 25.1155 87.7547 24.8988C88.0047 24.6655 88.1297 24.3822 88.1297 24.0488V17.3238C88.1297 17.0072 88.0047 16.7405 87.7547 16.5238C87.5047 16.2905 86.9297 16.1738 86.0297 16.1738C85.1297 16.1738 84.5547 16.2905 84.3047 16.5238C84.0547 16.7405 83.9297 17.0072 83.9297 17.3238V24.0488ZM109.887 11.6738H113.612C113.929 11.6738 114.154 11.7488 114.287 11.8988C114.437 12.0322 114.512 12.2572 114.512 12.5738V22.2738C114.512 22.8072 114.487 23.3072 114.437 23.7738C114.404 24.2238 114.279 24.7572 114.062 25.3738L112.812 28.7738C112.729 29.0238 112.604 29.2405 112.437 29.4238C112.287 29.5905 112.079 29.6738 111.812 29.6738H108.487C108.221 29.6738 107.979 29.6155 107.762 29.4988C107.546 29.3822 107.404 29.1905 107.337 28.9238L106.187 24.8488C106.137 24.6822 106.071 24.5738 105.987 24.5238C105.921 24.4572 105.837 24.4238 105.737 24.4238H105.512C105.412 24.4238 105.321 24.4572 105.237 24.5238C105.171 24.5738 105.112 24.6822 105.062 24.8488L103.887 28.9238C103.821 29.1738 103.696 29.3655 103.512 29.4988C103.329 29.6155 103.104 29.6738 102.837 29.6738H99.5373C99.2706 29.6738 99.0373 29.5905 98.8373 29.4238C98.654 29.2572 98.5206 29.0405 98.4373 28.7738L97.1873 25.3238C96.9706 24.7072 96.8373 24.1738 96.7873 23.7238C96.754 23.2572 96.7373 22.7572 96.7373 22.2238V12.5738C96.7373 12.2572 96.804 12.0322 96.9373 11.8988C97.0873 11.7488 97.3206 11.6738 97.6373 11.6738H101.487C101.804 11.6738 102.029 11.7488 102.162 11.8988C102.312 12.0322 102.387 12.2572 102.387 12.5738V21.7738L103.837 18.6238C103.971 18.3405 104.146 18.1405 104.362 18.0238C104.579 17.9072 104.846 17.8488 105.162 17.8488H106.212C106.529 17.8488 106.796 17.9072 107.012 18.0238C107.229 18.1405 107.404 18.3405 107.537 18.6238L108.987 21.7738V12.5738C108.987 12.2572 109.054 12.0322 109.187 11.8988C109.337 11.7488 109.571 11.6738 109.887 11.6738ZM127.064 29.6738H118.639C118.322 29.6738 118.089 29.6072 117.939 29.4738C117.805 29.3238 117.739 29.0905 117.739 28.7738V12.5738C117.739 12.2572 117.805 12.0322 117.939 11.8988C118.089 11.7488 118.322 11.6738 118.639 11.6738H127.064C129.147 11.6738 130.689 12.0905 131.689 12.9238C132.705 13.7572 133.214 15.0405 133.214 16.7738V24.5738C133.214 26.3072 132.705 27.5905 131.689 28.4238C130.689 29.2572 129.147 29.6738 127.064 29.6738ZM123.414 16.4488V24.9488H126.389C126.789 24.9488 127.08 24.8488 127.264 24.6488C127.464 24.4488 127.564 24.1405 127.564 23.7238V17.6488C127.564 17.2322 127.464 16.9322 127.264 16.7488C127.08 16.5488 126.789 16.4488 126.389 16.4488H123.414ZM145.516 29.6738H141.466C141.149 29.6738 140.916 29.6072 140.766 29.4738C140.633 29.3238 140.566 29.0905 140.566 28.7738V25.5738L136.741 20.4488C136.358 19.9322 136.099 19.4822 135.966 19.0988C135.849 18.7155 135.791 18.1405 135.791 17.3738V12.5738C135.791 12.2572 135.858 12.0322 135.991 11.8988C136.141 11.7488 136.374 11.6738 136.691 11.6738H140.541C140.858 11.6738 141.083 11.7488 141.216 11.8988C141.366 12.0322 141.441 12.2572 141.441 12.5738V16.6738C141.441 16.8405 141.449 17.0155 141.466 17.1988C141.483 17.3822 141.549 17.5572 141.666 17.7238L142.816 19.5238C142.899 19.6738 142.983 19.7822 143.066 19.8488C143.166 19.9155 143.283 19.9488 143.416 19.9488H143.666C143.799 19.9488 143.908 19.9155 143.991 19.8488C144.091 19.7822 144.183 19.6738 144.266 19.5238L145.416 17.7238C145.533 17.5572 145.599 17.3822 145.616 17.1988C145.633 17.0155 145.641 16.8405 145.641 16.6738V12.5738C145.641 12.2572 145.708 12.0322 145.841 11.8988C145.991 11.7488 146.224 11.6738 146.541 11.6738H150.266C150.583 11.6738 150.808 11.7488 150.941 11.8988C151.091 12.0322 151.166 12.2572 151.166 12.5738V17.3738C151.166 18.1405 151.099 18.7155 150.966 19.0988C150.833 19.4822 150.583 19.9322 150.216 20.4488L146.416 25.5988V28.7738C146.416 29.0905 146.341 29.3238 146.191 29.4738C146.058 29.6072 145.833 29.6738 145.516 29.6738Z" fill="#6A7DFF"/>
<path d="M7.1935 32.1028C7.47231 32.4098 7.68596 32.7806 7.81922 33.1886C7.95247 33.5966 8.00205 34.0318 7.96442 34.4632C7.77564 36.4599 7.41773 38.433 6.89534 40.3569C10.6425 39.4051 12.9311 38.3029 13.9706 37.7254C14.5603 37.3977 15.2393 37.3201 15.8778 37.5073C17.7082 38.0426 19.5948 38.3121 21.4892 38.3088C32.223 38.3088 40.2922 30.0371 40.2922 20.6278C40.2922 11.2215 32.223 2.94683 21.4892 2.94683C10.7553 2.94683 2.68615 11.2215 2.68615 20.6278C2.68615 24.9538 4.3435 28.9674 7.1935 32.1028ZM5.86923 43.6102C5.2328 43.7486 4.5943 43.8753 3.95401 43.9903C3.41678 44.0846 3.00848 43.4717 3.22069 42.9236C3.4592 42.3065 3.67781 41.6804 3.87611 41.0464L3.88417 41.017C4.55033 38.8952 5.09293 36.4553 5.29171 34.1833C1.99581 30.5587 0 25.8143 0 20.6278C0 9.23538 9.62178 0 21.4892 0C33.3566 0 42.9783 9.23538 42.9783 20.6278C42.9783 32.0203 33.3566 41.2557 21.4892 41.2557C19.3608 41.2588 17.2413 40.9557 15.1848 40.3539C13.788 41.129 10.7822 42.5405 5.86923 43.6102Z" fill="#6A7DFF"/>
<path fill-rule="evenodd" clip-rule="evenodd" d="M21.6688 9.20508C18.6847 9.20526 15.8229 10.3883 13.713 12.4938C11.603 14.5994 10.4178 17.455 10.418 20.4325C10.4182 23.41 11.6038 26.2655 13.714 28.3708C15.8242 30.4761 18.6861 31.6587 21.6703 31.6585C24.6544 31.6584 27.5162 30.4754 29.6261 28.3698C31.7361 26.2643 32.9213 23.4086 32.9211 20.4311C32.9209 17.4536 31.7353 14.5981 29.6251 12.4928C27.5149 10.3875 24.653 9.20489 21.6688 9.20508V9.20508ZM21.6013 30.2539C18.9904 30.2539 16.4864 29.219 14.6402 27.3769C12.794 25.5347 11.7568 23.0363 11.7568 20.4311C11.7568 17.8259 12.794 15.3275 14.6402 13.4854C16.4864 11.6432 18.9904 10.6083 21.6013 10.6083C24.2123 10.6083 26.7163 11.6432 28.5625 13.4854C30.4087 15.3275 31.4459 17.8259 31.4459 20.4311C31.4459 23.0363 30.4087 25.5347 28.5625 27.3769C26.7163 29.219 24.2123 30.2539 21.6013 30.2539Z" fill="#6A7DFF"/>
<path fill-rule="evenodd" clip-rule="evenodd" d="M14.5117 12.9713C14.132 14.8573 15.5454 17.7409 18.5508 18.4426C21.5548 19.1442 20.2637 18.5604 19.7968 17.6245C19.3271 16.6885 19.7476 15.9869 20.4747 15.7539C21.2032 15.5196 21.0189 16.1651 22.099 14.818C22.3719 12.0115 20.0289 14.7801 19.7954 13.6112C22.1159 10.9211 18.7181 9.90658 17.7323 10.2574C16.7464 10.6082 14.8914 11.0839 14.5117 12.9713Z" fill="#6A7DFF"/>
<path fill-rule="evenodd" clip-rule="evenodd" d="M20.0171 20.0015C19.8427 20.0787 19.0299 20.5853 18.75 20.9361C18.4701 21.2869 18.3478 22.0278 18.75 22.3394C19.1522 22.6523 18.7275 24.1341 19.8118 24.4064C20.8961 24.6786 21.9818 24.8372 22.0226 25.6931C22.0606 26.5491 21.9213 28.5375 21.3996 28.734C22.1028 29.1227 23.8143 27.0571 24.4162 25.9654C25.0195 24.875 25.2207 23.3146 25.1799 22.9245C25.1391 22.5358 25.4204 21.7177 25.5413 20.6653C25.6608 19.6128 24.7397 19.5427 24.6201 19.0754C24.4978 18.6067 24.3346 18.0917 20.0171 20.0015Z" fill="#6A7DFF"/>
<path fill-rule="evenodd" clip-rule="evenodd" d="M28.8093 14.8184C28.8093 14.8184 25.9797 16.0266 27.9036 17.8213C29.8247 19.6133 30.8036 21.3154 30.7093 21.7055C30.6221 22.0928 28.7686 24.0995 29.8332 23.9423C30.9034 23.7865 31.6924 21.6817 31.8625 20.4328C32.0299 19.1839 30.5631 16.7296 30.5026 16.5359C30.452 16.3381 29.4872 14.8394 28.8093 14.8184Z" fill="#6A7DFF"/>
</svg>
