<svg width="446" height="481" viewBox="0 0 446 481" fill="none" xmlns="http://www.w3.org/2000/svg">
<path d="M28.4997 444.948H11.5095C10.1211 444.948 9.098 444.656 8.44031 444.071C7.8557 443.414 7.56339 442.391 7.56339 441.002V369.972C7.56339 368.584 7.8557 367.597 8.44031 367.012C9.098 366.355 10.1211 366.026 11.5095 366.026H28.4997C29.8882 366.026 30.8747 366.355 31.4593 367.012C32.117 367.597 32.4459 368.584 32.4459 369.972V393.758H50.7515V369.972C50.7515 368.584 51.0438 367.597 51.6284 367.012C52.2861 366.355 53.3091 366.026 54.6976 366.026H71.6878C73.0763 366.026 74.0628 366.355 74.6474 367.012C75.3051 367.597 75.6339 368.584 75.6339 369.972V441.002C75.6339 442.391 75.3051 443.414 74.6474 444.071C74.0628 444.656 73.0763 444.948 71.6878 444.948H54.6976C53.3091 444.948 52.2861 444.656 51.6284 444.071C51.0438 443.414 50.7515 442.391 50.7515 441.002V416.668H32.4459V441.002C32.4459 442.391 32.117 443.414 31.4593 444.071C30.8747 444.656 29.8882 444.948 28.4997 444.948ZM157.602 424.231C157.602 427.593 157.091 430.662 156.068 433.439C155.118 436.143 153.364 438.481 150.806 440.454C148.322 442.354 144.851 443.852 140.393 444.948C136.008 446.044 130.418 446.592 123.622 446.592C116.826 446.592 111.199 446.044 106.741 444.948C102.284 443.852 98.776 442.354 96.2183 440.454C93.7337 438.481 91.9799 436.143 90.9568 433.439C90.0068 430.662 89.5319 427.593 89.5319 424.231V386.853C89.5319 383.491 90.0068 380.458 90.9568 377.755C91.9799 374.978 93.7337 372.603 96.2183 370.63C98.776 368.657 102.284 367.122 106.741 366.026C111.199 364.93 116.826 364.382 123.622 364.382C130.418 364.382 136.008 364.93 140.393 366.026C144.851 367.122 148.322 368.657 150.806 370.63C153.364 372.603 155.118 374.978 156.068 377.755C157.091 380.458 157.602 383.491 157.602 386.853V424.231ZM114.414 420.285C114.414 421.747 114.962 422.989 116.059 424.012C117.155 424.962 119.676 425.437 123.622 425.437C127.568 425.437 130.089 424.962 131.185 424.012C132.281 422.989 132.83 421.747 132.83 420.285V390.799C132.83 389.41 132.281 388.241 131.185 387.291C130.089 386.268 127.568 385.756 123.622 385.756C119.676 385.756 117.155 386.268 116.059 387.291C114.962 388.241 114.414 389.41 114.414 390.799V420.285ZM228.227 366.026H244.56C245.948 366.026 246.935 366.355 247.52 367.012C248.177 367.597 248.506 368.584 248.506 369.972V412.502C248.506 414.841 248.397 417.033 248.177 419.079C248.031 421.052 247.483 423.391 246.533 426.095L241.052 441.002C240.687 442.098 240.139 443.048 239.408 443.852C238.75 444.583 237.837 444.948 236.668 444.948H222.089C220.92 444.948 219.86 444.692 218.91 444.181C217.96 443.669 217.339 442.829 217.047 441.66L212.005 423.793C211.785 423.062 211.493 422.587 211.128 422.368C210.835 422.075 210.47 421.929 210.031 421.929H209.045C208.607 421.929 208.205 422.075 207.839 422.368C207.547 422.587 207.291 423.062 207.072 423.793L201.92 441.66C201.628 442.756 201.08 443.596 200.276 444.181C199.472 444.692 198.485 444.948 197.316 444.948H182.847C181.678 444.948 180.655 444.583 179.778 443.852C178.974 443.121 178.389 442.171 178.024 441.002L172.543 425.875C171.593 423.172 171.009 420.833 170.79 418.86C170.643 416.814 170.57 414.622 170.57 412.283V369.972C170.57 368.584 170.863 367.597 171.447 367.012C172.105 366.355 173.128 366.026 174.516 366.026H191.397C192.785 366.026 193.772 366.355 194.357 367.012C195.014 367.597 195.343 368.584 195.343 369.972V410.31L201.701 396.499C202.285 395.256 203.053 394.379 204.003 393.868C204.953 393.356 206.122 393.101 207.51 393.101H212.114C213.503 393.101 214.672 393.356 215.622 393.868C216.572 394.379 217.339 395.256 217.924 396.499L224.281 410.31V369.972C224.281 368.584 224.574 367.597 225.158 367.012C225.816 366.355 226.839 366.026 228.227 366.026ZM303.539 444.948H266.599C265.21 444.948 264.187 444.656 263.529 444.071C262.945 443.414 262.652 442.391 262.652 441.002V369.972C262.652 368.584 262.945 367.597 263.529 367.012C264.187 366.355 265.21 366.026 266.599 366.026H303.539C312.673 366.026 319.433 367.853 323.817 371.507C328.275 375.16 330.504 380.787 330.504 388.387V422.587C330.504 430.187 328.275 435.814 323.817 439.468C319.433 443.121 312.673 444.948 303.539 444.948ZM287.535 386.962V424.231H300.579C302.333 424.231 303.612 423.793 304.415 422.916C305.292 422.039 305.731 420.687 305.731 418.86V392.224C305.731 390.397 305.292 389.081 304.415 388.278C303.612 387.401 302.333 386.962 300.579 386.962H287.535ZM384.444 444.948H366.687C365.298 444.948 364.275 444.656 363.618 444.071C363.033 443.414 362.741 442.391 362.741 441.002V426.971L345.97 404.501C344.289 402.235 343.156 400.262 342.572 398.581C342.06 396.901 341.804 394.379 341.804 391.018V369.972C341.804 368.584 342.097 367.597 342.681 367.012C343.339 366.355 344.362 366.026 345.75 366.026H362.631C364.019 366.026 365.006 366.355 365.591 367.012C366.248 367.597 366.577 368.584 366.577 369.972V387.949C366.577 388.68 366.614 389.447 366.687 390.251C366.76 391.054 367.052 391.822 367.564 392.553L372.606 400.445C372.971 401.102 373.337 401.577 373.702 401.87C374.141 402.162 374.652 402.308 375.237 402.308H376.333C376.917 402.308 377.392 402.162 377.758 401.87C378.196 401.577 378.598 401.102 378.964 400.445L384.006 392.553C384.517 391.822 384.81 391.054 384.883 390.251C384.956 389.447 384.992 388.68 384.992 387.949V369.972C384.992 368.584 385.285 367.597 385.869 367.012C386.527 366.355 387.55 366.026 388.938 366.026H405.271C406.659 366.026 407.646 366.355 408.231 367.012C408.888 367.597 409.217 368.584 409.217 369.972V391.018C409.217 394.379 408.925 396.901 408.34 398.581C407.756 400.262 406.659 402.235 405.052 404.501L388.39 427.081V441.002C388.39 442.391 388.062 443.414 387.404 444.071C386.819 444.656 385.833 444.948 384.444 444.948Z" fill="white"/>
<path d="M115.868 239.444C117.949 241.734 119.545 244.499 120.539 247.542C121.534 250.585 121.905 253.832 121.624 257.049C120.214 271.942 117.542 286.659 113.642 301.008C141.619 293.909 158.706 285.689 166.467 281.381C170.869 278.937 175.939 278.358 180.706 279.754C194.372 283.747 208.458 285.757 222.601 285.733C302.742 285.733 362.987 224.036 362.987 153.856C362.987 83.6977 302.742 21.9794 222.601 21.9794C142.461 21.9794 82.2153 83.6977 82.2153 153.856C82.2153 186.122 94.5893 216.058 115.868 239.444ZM105.981 325.274C101.229 326.306 96.4618 327.251 91.6813 328.109C87.6703 328.812 84.6219 324.241 86.2063 320.152C87.987 315.55 89.6192 310.88 91.0997 306.152L91.1599 305.932C96.1336 290.107 100.185 271.908 101.669 254.961C77.0611 227.927 62.1602 192.54 62.1602 153.856C62.1602 68.8836 133.998 0 222.601 0C311.205 0 383.042 68.8836 383.042 153.856C383.042 238.829 311.205 307.712 222.601 307.712C206.711 307.736 190.886 305.474 175.532 300.986C165.103 306.767 142.661 317.295 105.981 325.274Z" fill="white"/>
<path fill-rule="evenodd" clip-rule="evenodd" d="M223.945 68.6582C201.665 68.6596 180.299 77.4831 164.545 93.1877C148.792 108.892 139.943 130.192 139.944 152.4C139.946 174.608 148.798 195.906 164.553 211.609C180.308 227.312 201.676 236.132 223.955 236.131C246.235 236.13 267.602 227.306 283.355 211.602C299.108 195.897 307.957 174.598 307.956 152.389C307.955 130.181 299.103 108.883 283.348 93.1803C267.592 77.4777 246.225 68.6568 223.945 68.6582V68.6582ZM223.441 225.654C203.947 225.654 185.252 217.935 171.468 204.195C157.684 190.456 149.94 171.82 149.94 152.389C149.94 132.958 157.684 114.323 171.468 100.583C185.252 86.8435 203.947 79.1246 223.441 79.1246C242.934 79.1246 261.63 86.8435 275.414 100.583C289.198 114.323 296.941 132.958 296.941 152.389C296.941 171.82 289.198 190.456 275.414 204.195C261.63 217.935 242.934 225.654 223.441 225.654Z" fill="white"/>
<path fill-rule="evenodd" clip-rule="evenodd" d="M170.511 96.7493C167.676 110.816 178.228 132.325 200.667 137.558C223.095 142.791 213.456 138.437 209.97 131.456C206.463 124.475 209.602 119.242 215.031 117.504C220.47 115.756 219.094 120.571 227.159 110.523C229.196 89.5902 211.702 110.24 209.959 101.522C227.285 81.4578 201.916 73.8906 194.556 76.5072C187.195 79.1238 173.346 82.6719 170.511 96.7493Z" fill="white"/>
<path fill-rule="evenodd" clip-rule="evenodd" d="M211.608 149.186C210.306 149.762 204.237 153.54 202.147 156.157C200.057 158.773 199.144 164.3 202.147 166.623C205.15 168.957 201.979 180.01 210.075 182.04C218.17 184.071 226.276 185.253 226.581 191.638C226.864 198.022 225.825 212.853 221.929 214.319C227.179 217.218 239.958 201.811 244.452 193.668C248.956 185.536 250.458 173.897 250.153 170.988C249.849 168.089 251.949 161.987 252.852 154.137C253.744 146.287 246.867 145.764 245.974 142.278C245.061 138.783 243.843 134.941 211.608 149.186Z" fill="white"/>
<path fill-rule="evenodd" clip-rule="evenodd" d="M277.254 110.524C277.254 110.524 256.127 119.536 270.491 132.923C284.835 146.288 292.143 158.984 291.439 161.894C290.788 164.782 276.949 179.749 284.898 178.577C292.888 177.415 298.779 161.716 300.049 152.4C301.299 143.085 290.347 124.78 289.896 123.335C289.518 121.86 282.315 110.681 277.254 110.524Z" fill="white"/>
</svg>
