<svg width="486" height="78" viewBox="0 0 486 78" fill="none" xmlns="http://www.w3.org/2000/svg">
<path d="M115 54.4668H107.25C106.617 54.4668 106.15 54.3335 105.85 54.0668C105.583 53.7668 105.45 53.3001 105.45 52.6668V20.2668C105.45 19.6335 105.583 19.1835 105.85 18.9168C106.15 18.6168 106.617 18.4668 107.25 18.4668H115C115.633 18.4668 116.083 18.6168 116.35 18.9168C116.65 19.1835 116.8 19.6335 116.8 20.2668V31.1168H125.15V20.2668C125.15 19.6335 125.283 19.1835 125.55 18.9168C125.85 18.6168 126.317 18.4668 126.95 18.4668H134.7C135.333 18.4668 135.783 18.6168 136.05 18.9168C136.35 19.1835 136.5 19.6335 136.5 20.2668V52.6668C136.5 53.3001 136.35 53.7668 136.05 54.0668C135.783 54.3335 135.333 54.4668 134.7 54.4668H126.95C126.317 54.4668 125.85 54.3335 125.55 54.0668C125.283 53.7668 125.15 53.3001 125.15 52.6668V41.5668H116.8V52.6668C116.8 53.3001 116.65 53.7668 116.35 54.0668C116.083 54.3335 115.633 54.4668 115 54.4668ZM173.889 45.0168C173.889 46.5501 173.656 47.9501 173.189 49.2168C172.756 50.4501 171.956 51.5168 170.789 52.4168C169.656 53.2835 168.073 53.9668 166.039 54.4668C164.039 54.9668 161.489 55.2168 158.389 55.2168C155.289 55.2168 152.723 54.9668 150.689 54.4668C148.656 53.9668 147.056 53.2835 145.889 52.4168C144.756 51.5168 143.956 50.4501 143.489 49.2168C143.056 47.9501 142.839 46.5501 142.839 45.0168V27.9668C142.839 26.4335 143.056 25.0501 143.489 23.8168C143.956 22.5501 144.756 21.4668 145.889 20.5668C147.056 19.6668 148.656 18.9668 150.689 18.4668C152.723 17.9668 155.289 17.7168 158.389 17.7168C161.489 17.7168 164.039 17.9668 166.039 18.4668C168.073 18.9668 169.656 19.6668 170.789 20.5668C171.956 21.4668 172.756 22.5501 173.189 23.8168C173.656 25.0501 173.889 26.4335 173.889 27.9668V45.0168ZM154.189 43.2168C154.189 43.8835 154.439 44.4501 154.939 44.9168C155.439 45.3501 156.589 45.5668 158.389 45.5668C160.189 45.5668 161.339 45.3501 161.839 44.9168C162.339 44.4501 162.589 43.8835 162.589 43.2168V29.7668C162.589 29.1335 162.339 28.6001 161.839 28.1668C161.339 27.7001 160.189 27.4668 158.389 27.4668C156.589 27.4668 155.439 27.7001 154.939 28.1668C154.439 28.6001 154.189 29.1335 154.189 29.7668V43.2168ZM206.105 18.4668H213.555C214.188 18.4668 214.638 18.6168 214.905 18.9168C215.205 19.1835 215.355 19.6335 215.355 20.2668V39.6668C215.355 40.7335 215.305 41.7335 215.205 42.6668C215.138 43.5668 214.888 44.6335 214.455 45.8668L211.955 52.6668C211.788 53.1668 211.538 53.6001 211.205 53.9668C210.905 54.3001 210.488 54.4668 209.955 54.4668H203.305C202.771 54.4668 202.288 54.3501 201.855 54.1168C201.421 53.8835 201.138 53.5001 201.005 52.9668L198.705 44.8168C198.605 44.4835 198.471 44.2668 198.305 44.1668C198.171 44.0335 198.005 43.9668 197.805 43.9668H197.355C197.155 43.9668 196.971 44.0335 196.805 44.1668C196.671 44.2668 196.555 44.4835 196.455 44.8168L194.105 52.9668C193.971 53.4668 193.721 53.8501 193.355 54.1168C192.988 54.3501 192.538 54.4668 192.005 54.4668H185.405C184.871 54.4668 184.405 54.3001 184.005 53.9668C183.638 53.6335 183.371 53.2001 183.205 52.6668L180.705 45.7668C180.271 44.5335 180.005 43.4668 179.905 42.5668C179.838 41.6335 179.805 40.6335 179.805 39.5668V20.2668C179.805 19.6335 179.938 19.1835 180.205 18.9168C180.505 18.6168 180.971 18.4668 181.605 18.4668H189.305C189.938 18.4668 190.388 18.6168 190.655 18.9168C190.955 19.1835 191.105 19.6335 191.105 20.2668V38.6668L194.005 32.3668C194.271 31.8001 194.621 31.4001 195.055 31.1668C195.488 30.9335 196.021 30.8168 196.655 30.8168H198.755C199.388 30.8168 199.921 30.9335 200.355 31.1668C200.788 31.4001 201.138 31.8001 201.405 32.3668L204.305 38.6668V20.2668C204.305 19.6335 204.438 19.1835 204.705 18.9168C205.005 18.6168 205.471 18.4668 206.105 18.4668ZM240.457 54.4668H223.607C222.974 54.4668 222.507 54.3335 222.207 54.0668C221.941 53.7668 221.807 53.3001 221.807 52.6668V20.2668C221.807 19.6335 221.941 19.1835 222.207 18.9168C222.507 18.6168 222.974 18.4668 223.607 18.4668H240.457C244.624 18.4668 247.707 19.3001 249.707 20.9668C251.741 22.6335 252.757 25.2001 252.757 28.6668V44.2668C252.757 47.7335 251.741 50.3001 249.707 51.9668C247.707 53.6335 244.624 54.4668 240.457 54.4668ZM233.157 28.0168V45.0168H239.107C239.907 45.0168 240.491 44.8168 240.857 44.4168C241.257 44.0168 241.457 43.4001 241.457 42.5668V30.4168C241.457 29.5835 241.257 28.9835 240.857 28.6168C240.491 28.2168 239.907 28.0168 239.107 28.0168H233.157ZM277.362 54.4668H269.262C268.629 54.4668 268.162 54.3335 267.862 54.0668C267.595 53.7668 267.462 53.3001 267.462 52.6668V46.2668L259.812 36.0168C259.045 34.9835 258.529 34.0835 258.262 33.3168C258.029 32.5501 257.912 31.4001 257.912 29.8668V20.2668C257.912 19.6335 258.045 19.1835 258.312 18.9168C258.612 18.6168 259.079 18.4668 259.712 18.4668H267.412C268.045 18.4668 268.495 18.6168 268.762 18.9168C269.062 19.1835 269.212 19.6335 269.212 20.2668V28.4668C269.212 28.8001 269.229 29.1501 269.262 29.5168C269.295 29.8835 269.429 30.2335 269.662 30.5668L271.962 34.1668C272.129 34.4668 272.295 34.6835 272.462 34.8168C272.662 34.9501 272.895 35.0168 273.162 35.0168H273.662C273.929 35.0168 274.145 34.9501 274.312 34.8168C274.512 34.6835 274.695 34.4668 274.862 34.1668L277.162 30.5668C277.395 30.2335 277.529 29.8835 277.562 29.5168C277.595 29.1501 277.612 28.8001 277.612 28.4668V20.2668C277.612 19.6335 277.745 19.1835 278.012 18.9168C278.312 18.6168 278.779 18.4668 279.412 18.4668H286.862C287.495 18.4668 287.945 18.6168 288.212 18.9168C288.512 19.1835 288.662 19.6335 288.662 20.2668V29.8668C288.662 31.4001 288.529 32.5501 288.262 33.3168C287.995 34.0835 287.495 34.9835 286.762 36.0168L279.162 46.3168V52.6668C279.162 53.3001 279.012 53.7668 278.712 54.0668C278.445 54.3335 277.995 54.4668 277.362 54.4668Z" fill="#F2F2F2"/>
<path d="M12.6867 56.5126C13.1784 57.0531 13.5552 57.7057 13.7903 58.424C14.0253 59.1422 14.1127 59.9083 14.0463 60.6678C13.7134 64.1827 13.0822 67.6561 12.1609 71.0428C18.7695 69.3672 22.8058 67.4271 24.6391 66.4104C25.679 65.8337 26.8766 65.697 28.0027 66.0265C31.2309 66.9689 34.5581 67.4433 37.8991 67.4375C56.8297 67.4375 71.0608 52.8762 71.0608 36.3125C71.0608 19.754 56.8297 5.1875 37.8991 5.1875C18.9685 5.1875 4.73739 19.754 4.73739 36.3125C4.73739 43.9277 7.66035 50.9931 12.6867 56.5126ZM10.3512 76.7698C9.22875 77.0135 8.10268 77.2366 6.97343 77.439C6.02595 77.605 5.30587 76.526 5.68012 75.5611C6.10077 74.4749 6.48631 73.3727 6.83605 72.2567L6.85026 72.2048C8.02513 68.4698 8.98208 64.1746 9.33265 60.175C3.51988 53.7944 0 45.4425 0 36.3125C0 16.2576 16.9693 0 37.8991 0C58.8288 0 75.7982 16.2576 75.7982 36.3125C75.7982 56.3674 58.8288 72.625 37.8991 72.625C34.1454 72.6305 30.4073 72.0969 26.7804 71.0376C24.317 72.4019 19.0159 74.8867 10.3512 76.7698Z" fill="#F2F2F2"/>
<path fill-rule="evenodd" clip-rule="evenodd" d="M38.2175 16.2051C32.9546 16.2054 27.9074 18.2879 24.1862 21.9944C20.465 25.701 18.3747 30.7279 18.375 35.9695C18.3753 41.211 20.4663 46.2377 24.188 49.9437C27.9096 53.6498 32.9571 55.7317 38.2199 55.7314C43.4828 55.731 48.53 53.6485 52.2512 49.942C55.9724 46.2355 58.0627 41.2085 58.0624 35.967C58.0621 30.7255 55.9711 25.6988 52.2494 21.9927C48.5278 18.2866 43.4803 16.2048 38.2175 16.2051V16.2051ZM38.0984 53.2586C33.4937 53.2586 29.0775 51.4369 25.8215 48.194C22.5655 44.9512 20.7363 40.553 20.7363 35.967C20.7363 31.3809 22.5655 26.9827 25.8215 23.7399C29.0775 20.4971 33.4937 18.6753 38.0984 18.6753C42.7031 18.6753 47.1193 20.4971 50.3753 23.7399C53.6313 26.9827 55.4605 31.3809 55.4605 35.967C55.4605 40.553 53.6313 44.9512 50.3753 48.194C47.1193 51.4369 42.7031 53.2586 38.0984 53.2586Z" fill="#F2F2F2"/>
<path fill-rule="evenodd" clip-rule="evenodd" d="M25.5951 22.8348C24.9254 26.1548 27.4181 31.2311 32.7185 32.4662C38.0164 33.7013 35.7395 32.6737 34.9161 31.0261C34.0876 29.3784 34.8292 28.1433 36.1116 27.7332C37.3964 27.3207 37.0714 28.457 38.9763 26.0856C39.4575 21.1451 35.3253 26.0189 34.9136 23.9612C39.0061 19.2257 33.0137 17.4398 31.275 18.0573C29.5363 18.6749 26.2648 19.5123 25.5951 22.8348Z" fill="#F2F2F2"/>
<path fill-rule="evenodd" clip-rule="evenodd" d="M35.3027 35.2109C34.9952 35.3468 33.5615 36.2385 33.068 36.8561C32.5744 37.4736 32.3586 38.7779 33.068 39.3263C33.7773 39.8772 33.0283 42.4858 34.9406 42.965C36.8529 43.4442 38.7677 43.7233 38.8396 45.2302C38.9066 46.737 38.661 50.2374 37.7409 50.5832C38.981 51.2675 41.9995 47.6313 43.0611 45.7094C44.1252 43.79 44.4798 41.0431 44.4079 40.3564C44.336 39.6722 44.8321 38.232 45.0454 36.3793C45.2562 34.5267 43.6316 34.4031 43.4208 33.5805C43.205 32.7555 42.9173 31.8489 35.3027 35.2109Z" fill="#F2F2F2"/>
<path fill-rule="evenodd" clip-rule="evenodd" d="M50.8106 26.0859C50.8106 26.0859 45.8203 28.2128 49.2133 31.3722C52.6014 34.5267 54.3277 37.5231 54.1615 38.2099C54.0078 38.8917 50.7387 42.4241 52.6163 42.1474C54.5038 41.8732 55.8953 38.1679 56.1954 35.9694C56.4905 33.7708 53.9036 29.4504 53.7969 29.1095C53.7076 28.7612 52.0061 26.123 50.8106 26.0859Z" fill="#F2F2F2"/>
<path d="M334.15 52H318.35C317.717 52 317.25 51.8667 316.95 51.6C316.683 51.3 316.55 50.8333 316.55 50.2V44.35C316.55 43.7167 316.683 43.2667 316.95 43C317.25 42.7 317.717 42.55 318.35 42.55H331.8C332.233 42.55 332.55 42.4167 332.75 42.15C332.983 41.85 333.1 41.5 333.1 41.1C333.1 40.5333 332.983 40.1167 332.75 39.85C332.55 39.5833 332.233 39.4333 331.8 39.4L324.3 38.35C321.967 38.0167 320.083 37.25 318.65 36.05C317.25 34.85 316.55 32.85 316.55 30.05V24.8C316.55 21.9667 317.467 19.8 319.3 18.3C321.133 16.7667 323.667 16 326.9 16H340.9C341.533 16 341.983 16.15 342.25 16.45C342.55 16.7167 342.7 17.1667 342.7 17.8V23.75C342.7 24.3833 342.55 24.85 342.25 25.15C341.983 25.4167 341.533 25.55 340.9 25.55H329.25C328.817 25.55 328.483 25.7 328.25 26C328.017 26.2667 327.9 26.6167 327.9 27.05C327.9 27.4833 328.017 27.85 328.25 28.15C328.483 28.45 328.817 28.6167 329.25 28.65L336.7 29.65C339.033 29.9833 340.917 30.75 342.35 31.95C343.783 33.15 344.5 35.15 344.5 37.95V43.2C344.5 46.0333 343.567 48.2167 341.7 49.75C339.867 51.25 337.35 52 334.15 52ZM366.481 52H358.381C357.748 52 357.281 51.8667 356.981 51.6C356.715 51.3 356.581 50.8333 356.581 50.2V25.65H349.231C348.598 25.65 348.131 25.5167 347.831 25.25C347.565 24.95 347.431 24.4833 347.431 23.85V17.8C347.431 17.1667 347.565 16.7167 347.831 16.45C348.131 16.15 348.598 16 349.231 16H375.631C376.265 16 376.715 16.15 376.981 16.45C377.281 16.7167 377.431 17.1667 377.431 17.8V23.85C377.431 24.4833 377.281 24.95 376.981 25.25C376.715 25.5167 376.265 25.65 375.631 25.65H368.281V50.2C368.281 50.8333 368.131 51.3 367.831 51.6C367.565 51.8667 367.115 52 366.481 52ZM412.55 42.55C412.55 44.0833 412.316 45.4833 411.85 46.75C411.416 47.9833 410.616 49.05 409.45 49.95C408.316 50.8167 406.733 51.5 404.7 52C402.7 52.5 400.15 52.75 397.05 52.75C393.95 52.75 391.383 52.5 389.35 52C387.316 51.5 385.716 50.8167 384.55 49.95C383.416 49.05 382.616 47.9833 382.15 46.75C381.716 45.4833 381.5 44.0833 381.5 42.55V25.5C381.5 23.9667 381.716 22.5833 382.15 21.35C382.616 20.0833 383.416 19 384.55 18.1C385.716 17.2 387.316 16.5 389.35 16C391.383 15.5 393.95 15.25 397.05 15.25C400.15 15.25 402.7 15.5 404.7 16C406.733 16.5 408.316 17.2 409.45 18.1C410.616 19 411.416 20.0833 411.85 21.35C412.316 22.5833 412.55 23.9667 412.55 25.5V42.55ZM392.85 40.75C392.85 41.4167 393.1 41.9833 393.6 42.45C394.1 42.8833 395.25 43.1 397.05 43.1C398.85 43.1 400 42.8833 400.5 42.45C401 41.9833 401.25 41.4167 401.25 40.75V27.3C401.25 26.6667 401 26.1333 400.5 25.7C400 25.2333 398.85 25 397.05 25C395.25 25 394.1 25.2333 393.6 25.7C393.1 26.1333 392.85 26.6667 392.85 27.3V40.75ZM430.215 25V31.4H433.965C434.832 31.4 435.415 31.1833 435.715 30.75C436.015 30.2833 436.165 29.7167 436.165 29.05V27.35C436.165 26.6833 436.015 26.1333 435.715 25.7C435.415 25.2333 434.832 25 433.965 25H430.215ZM428.415 52H420.715C420.082 52 419.615 51.8667 419.315 51.6C419.048 51.3 418.915 50.8333 418.915 50.2V17.8C418.915 17.1667 419.048 16.7167 419.315 16.45C419.615 16.15 420.082 16 420.715 16H437.365C441.098 16 443.665 16.7833 445.065 18.35C446.498 19.8833 447.215 21.8833 447.215 24.35V26.65C447.215 28.05 446.998 29.25 446.565 30.25C446.165 31.2167 445.448 31.9167 444.415 32.35C446.215 32.55 447.665 33.2833 448.765 34.55C449.898 35.8167 450.465 37.5 450.465 39.6V50.2C450.465 50.8333 450.315 51.3 450.015 51.6C449.748 51.8667 449.298 52 448.665 52H440.915C440.282 52 439.815 51.8667 439.515 51.6C439.248 51.3 439.115 50.8333 439.115 50.2V42.55C439.115 41.8167 438.965 41.2833 438.665 40.95C438.398 40.5833 437.915 40.4 437.215 40.4H430.215V50.2C430.215 50.8333 430.065 51.3 429.765 51.6C429.498 51.8667 429.048 52 428.415 52ZM481.073 52H457.873C457.24 52 456.773 51.8667 456.473 51.6C456.206 51.3 456.073 50.8333 456.073 50.2V17.8C456.073 17.1667 456.206 16.7167 456.473 16.45C456.773 16.15 457.24 16 457.873 16H481.073C481.706 16 482.156 16.15 482.423 16.45C482.723 16.7167 482.873 17.1667 482.873 17.8V23.65C482.873 24.2833 482.723 24.75 482.423 25.05C482.156 25.3167 481.706 25.45 481.073 25.45H467.273V29.3H477.023C477.656 29.3 478.106 29.45 478.373 29.75C478.673 30.0167 478.823 30.4667 478.823 31.1V36.45C478.823 37.0833 478.673 37.55 478.373 37.85C478.106 38.1167 477.656 38.25 477.023 38.25H467.273V42.55H481.073C481.706 42.55 482.156 42.7 482.423 43C482.723 43.2667 482.873 43.7167 482.873 44.35V50.2C482.873 50.8333 482.723 51.3 482.423 51.6C482.156 51.8667 481.706 52 481.073 52Z" fill="#F2F2F2"/>
</svg>
