<?xml version="1.0" standalone="no"?>
<!DOCTYPE svg PUBLIC "-//W3C//DTD SVG 20010904//EN"
 "http://www.w3.org/TR/2001/REC-SVG-20010904/DTD/svg10.dtd">
<svg version="1.0" xmlns="http://www.w3.org/2000/svg"
 width="2000.000000pt" height="1200.000000pt" viewBox="0 0 2000.000000 1200.000000"
 preserveAspectRatio="xMidYMid meet">

<g transform="translate(0.000000,1200.000000) scale(0.100000,-0.100000)"
fill="#000000" stroke="none">
<path d="M10935 9354 c-461 -70 -752 -314 -900 -758 -33 -99 -75 -304 -75
-369 0 -18 -7 -45 -15 -60 -11 -22 -12 -34 -4 -49 6 -11 8 -47 5 -86 -3 -37
-5 -74 -5 -82 -1 -13 16 -241 18 -262 1 -5 504 -8 1120 -8 l1119 0 6 31 c3 17
6 69 6 116 0 46 4 92 9 101 4 10 4 48 -2 89 -8 57 -8 78 3 97 10 19 10 29 1
39 -6 8 -16 52 -21 98 -12 101 -45 263 -66 321 -8 22 -13 43 -10 45 3 3 235
-120 2226 -1192 432 -232 809 -435 838 -450 51 -27 54 -29 47 -59 -62 -268 64
-449 320 -459 l39 -2 93 -425 c51 -234 120 -549 152 -700 188 -863 342 -1567
347 -1582 5 -15 18 -18 95 -18 81 0 89 2 89 19 0 10 -27 142 -60 292 -33 151
-74 335 -90 409 -16 74 -45 207 -64 295 -20 88 -110 502 -201 920 -91 418
-170 781 -176 808 -11 47 -11 48 26 88 63 70 80 120 80 230 0 86 -3 101 -30
154 -37 72 -114 138 -187 160 -72 21 -176 19 -239 -4 l-51 -20 -52 28 c-28 16
-442 239 -921 496 -1461 786 -2032 1092 -2229 1198 -173 94 -192 107 -236 162
-151 187 -324 296 -579 362 -76 20 -127 25 -246 28 -82 2 -163 1 -180 -1z"/>
<path d="M10905 6836 c-166 -39 -283 -106 -421 -241 -162 -160 -259 -323 -350
-590 -59 -173 -110 -461 -115 -655 l-2 -75 79 0 79 0 94 153 c52 83 96 150 98
148 3 -2 -5 -62 -16 -133 -32 -196 -55 -173 178 -173 l200 0 -77 78 c-86 86
-138 178 -168 295 -9 38 -22 67 -29 67 -7 0 -25 10 -40 22 -97 76 -102 313 -8
334 15 3 33 7 40 9 6 2 13 0 15 -6 2 -5 59 -1 143 10 77 11 210 27 295 36 85
8 176 18 202 21 l48 6 2 211 3 212 38 -185 c21 -102 40 -192 43 -201 3 -12 34
-23 102 -39 53 -12 132 -35 176 -50 45 -16 90 -26 107 -23 64 10 101 -43 100
-146 0 -40 -7 -86 -17 -109 -17 -44 -74 -102 -99 -102 -8 0 -15 -8 -15 -18 0
-30 -48 -161 -76 -211 -15 -25 -42 -65 -60 -88 -26 -32 -34 -51 -34 -82 l0
-41 140 0 c115 0 142 3 146 15 3 8 21 115 38 237 20 137 35 213 39 198 4 -14
16 -104 27 -200 11 -96 23 -192 26 -212 l6 -38 78 0 79 0 -5 93 c-25 480 -110
806 -279 1067 -93 145 -237 281 -360 343 -133 66 -321 93 -450 63z"/>
<path d="M11581 4834 c0 -11 3 -14 6 -6 3 7 2 16 -1 19 -3 4 -6 -2 -5 -13z"/>
<path d="M11582 4720 c0 -14 2 -19 5 -12 2 6 2 18 0 25 -3 6 -5 1 -5 -13z"/>
<path d="M11930 4665 c13 -14 26 -25 28 -25 3 0 -5 11 -18 25 -13 14 -26 25
-28 25 -3 0 5 -11 18 -25z"/>
<path d="M10025 4569 c-4 -6 -5 -12 -2 -15 2 -3 7 2 10 11 7 17 1 20 -8 4z"/>
<path d="M10979 4533 c-13 -16 -12 -17 4 -4 9 7 17 15 17 17 0 8 -8 3 -21 -13z"/>
<path d="M10914 4468 l-19 -23 23 19 c21 18 27 26 19 26 -2 0 -12 -10 -23 -22z"/>
<path d="M12007 4479 c7 -7 15 -10 18 -7 3 3 -2 9 -12 12 -14 6 -15 5 -6 -5z"/>
<path d="M9970 4476 c0 -2 7 -7 16 -10 8 -3 12 -2 9 4 -6 10 -25 14 -25 6z"/>
<path d="M11145 4460 c10 -11 20 -20 23 -20 3 0 -3 9 -13 20 -10 11 -20 20
-23 20 -3 0 3 -9 13 -20z"/>
<path d="M12045 4460 c-3 -6 1 -7 9 -4 18 7 21 14 7 14 -6 0 -13 -4 -16 -10z"/>
<path d="M10581 4443 c7 -12 15 -20 18 -17 3 2 -3 12 -13 22 -17 16 -18 16 -5
-5z"/>
<path d="M11127 4439 c7 -7 15 -10 18 -7 3 3 -2 9 -12 12 -14 6 -15 5 -6 -5z"/>
<path d="M10859 4413 c-13 -16 -12 -17 4 -4 16 13 21 21 13 21 -2 0 -10 -8
-17 -17z"/>
<path d="M11435 4400 c-10 -11 -16 -22 -14 -24 2 -2 12 7 22 20 22 29 17 32
-8 4z"/>
<path d="M11230 4375 c13 -14 26 -25 28 -25 3 0 -5 11 -18 25 -13 14 -26 25
-28 25 -3 0 5 -11 18 -25z"/>
<path d="M10665 4350 c10 -11 20 -20 23 -20 3 0 -3 9 -13 20 -10 11 -20 20
-23 20 -3 0 3 -9 13 -20z"/>
<path d="M11646 4301 c-4 -5 3 -7 14 -4 23 6 26 13 6 13 -8 0 -17 -4 -20 -9z"/>
<path d="M11288 4278 c5 -5 16 -8 23 -6 8 3 3 7 -10 11 -17 4 -21 3 -13 -5z"/>
<path d="M10558 4223 c7 -3 16 -2 19 1 4 3 -2 6 -13 5 -11 0 -14 -3 -6 -6z"/>
<path d="M11195 4140 c-3 -6 1 -7 9 -4 18 7 21 14 7 14 -6 0 -13 -4 -16 -10z"/>
<path d="M16980 4113 c-15 -6 -39 -33 -40 -45 0 -6 85 -38 102 -38 19 0 7 59
-14 74 -24 17 -25 17 -48 9z"/>
<path d="M11046 4061 c-4 -5 3 -7 14 -4 23 6 26 13 6 13 -8 0 -17 -4 -20 -9z"/>
<path d="M15622 4034 c-21 -14 -31 -62 -16 -77 8 -7 104 41 104 53 0 11 -40
40 -55 40 -6 0 -21 -7 -33 -16z"/>
<path d="M16832 3721 l-20 -59 46 -18 c26 -11 51 -19 56 -19 6 0 44 100 46
122 0 2 -93 33 -101 33 -4 0 -16 -27 -27 -59z"/>
<path d="M15793 3717 c-24 -11 -43 -25 -43 -30 0 -15 41 -78 49 -75 3 2 24 12
46 23 22 11 41 20 43 21 6 4 -38 84 -46 83 -4 0 -26 -10 -49 -22z"/>
<path d="M6740 3713 c-8 -4 -22 -16 -32 -27 -16 -20 -17 -92 -18 -1214 0 -804
3 -1200 10 -1213 10 -19 5 -19 -262 -19 -483 0 -2562 -12 -3233 -19 -630 -6
-604 -7 870 -16 1680 -11 12007 -13 12720 -2 248 3 693 8 990 9 459 2 497 3
251 8 l-289 5 -18 77 c-60 253 -242 469 -500 593 -40 19 -80 35 -87 35 -8 0
-49 -27 -92 -59 -76 -57 -197 -122 -253 -136 -15 -4 -27 -11 -27 -15 0 -5 65
-117 145 -249 l144 -241 -67 0 -67 0 -136 228 -137 227 -33 -2 c-19 -2 -117
-5 -219 -9 -182 -6 -214 -4 -390 31 -23 5 -34 -10 -165 -230 l-140 -235 -80 0
c-833 -2 -3370 2 -3660 6 l-390 6 2 27 c20 264 26 327 30 334 8 13 116 64 181
86 34 12 83 21 110 21 46 0 52 -3 93 -47 24 -27 57 -63 72 -82 24 -29 58 -45
239 -113 239 -90 261 -100 281 -129 l15 -21 144 22 c322 48 476 106 588 219
118 119 180 276 180 456 0 55 -7 129 -16 165 -49 209 -205 372 -419 436 -80
24 -275 24 -400 0 -260 -50 -683 -184 -912 -287 -49 -22 -110 -17 -288 26
-167 40 -174 42 -192 57 -12 9 -14 9 -9 1 5 -9 2 -11 -8 -7 -9 3 -13 10 -10
15 3 5 -18 -1 -48 -13 -45 -19 -76 -23 -196 -26 l-143 -3 -74 35 c-40 20 -78
36 -84 36 -6 0 -25 8 -43 18 -18 10 -89 42 -158 72 -69 29 -147 63 -175 75
-27 13 -135 60 -240 105 -104 45 -199 87 -209 92 -18 10 -19 5 -12 -160 l8
-170 -89 29 c-228 77 -459 122 -618 123 -140 0 -214 -17 -319 -72 -348 -182
-414 -711 -125 -1002 119 -119 262 -170 624 -224 247 -37 738 -83 935 -88 155
-4 -991 -15 -1700 -17 l-735 -1 3 844 c2 820 2 844 -17 867 l-19 24 -287 0
-287 0 -19 -24 c-19 -23 -19 -19 -19 344 l0 367 -29 29 -29 29 -199 -1 c-109
0 -205 -3 -213 -6z m480 -2464 c0 -5 -7 -9 -15 -9 -9 0 -12 6 -9 15 6 15 24
11 24 -6z"/>
<path d="M6038 3543 c7 -3 16 -2 19 1 4 3 -2 6 -13 5 -11 0 -14 -3 -6 -6z"/>
<path d="M5587 3453 c-2 -5 -7 -25 -11 -46 -4 -21 -9 -44 -12 -51 -6 -16 -11
-14 224 -67 101 -23 187 -37 192 -33 4 5 11 32 15 60 6 50 6 51 -22 57 -15 4
-106 24 -200 47 -194 45 -180 43 -186 33z"/>
<path d="M14894 3403 c-8 -32 -18 -66 -20 -75 -5 -17 21 -28 107 -43 l36 -7
17 72 c10 39 16 73 14 75 -5 4 -115 35 -127 35 -6 0 -18 -26 -27 -57z"/>
<path d="M16310 3421 c0 -16 5 -33 11 -36 14 -9 16 -5 21 30 2 22 -1 31 -14
33 -14 3 -18 -3 -18 -27z"/>
<path d="M16150 3416 c0 -25 12 -46 26 -46 15 0 18 18 8 44 -8 20 -34 21 -34
2z"/>
<path d="M16475 3415 c-3 -8 -7 -22 -10 -30 -2 -9 2 -18 11 -22 18 -7 19 -5
28 28 4 19 1 29 -9 33 -9 3 -18 -1 -20 -9z"/>
<path d="M16002 3381 c-10 -6 -11 -13 -1 -34 14 -31 39 -36 39 -9 0 27 -23 53
-38 43z"/>
<path d="M16618 3344 c-10 -21 -9 -27 3 -34 10 -7 17 -2 27 16 13 25 9 44 -9
44 -5 0 -15 -12 -21 -26z"/>
<path d="M14440 3020 l0 -290 75 0 75 0 0 290 0 290 -75 0 -75 0 0 -290z"/>
<path d="M15863 3298 c-14 -17 18 -65 36 -54 15 10 14 17 -7 44 -15 19 -20 21
-29 10z"/>
<path d="M5545 3267 c-6 -7 -11 -23 -12 -37 -1 -14 -5 -35 -7 -46 -5 -17 0
-23 17 -27 307 -71 389 -88 395 -83 5 6 21 77 22 96 0 12 -34 24 -140 49 -77
19 -138 36 -136 40 2 3 -8 6 -22 6 -15 0 -45 4 -67 7 -26 5 -44 3 -50 -5z"/>
<path d="M16752 3259 c-10 -16 -11 -24 -2 -33 8 -8 16 -5 30 14 10 13 16 28
14 32 -9 15 -29 8 -42 -13z"/>
<path d="M16323 3205 c-6 -27 -21 -112 -34 -189 -18 -113 -20 -144 -11 -169
11 -28 10 -33 -12 -52 -47 -39 -58 -92 -32 -144 26 -49 116 -69 164 -35 21 14
23 14 34 -10 6 -15 16 -26 22 -26 6 -1 63 -7 126 -15 63 -7 116 -12 117 -11 2
1 -42 35 -97 75 -76 55 -106 72 -127 69 -24 -3 -28 1 -34 32 -4 20 -21 47 -38
62 -30 27 -31 29 -17 57 14 26 13 44 -14 202 -17 96 -31 181 -33 189 -2 8 -8
-7 -14 -35z"/>
<path d="M15742 3187 c-9 -11 -7 -19 12 -36 19 -18 25 -19 34 -8 9 11 7 19
-12 36 -19 18 -25 19 -34 8z"/>
<path d="M16860 3145 c-21 -22 -21 -25 -6 -31 11 -4 25 1 37 13 17 17 18 21 6
31 -11 9 -19 6 -37 -13z"/>
<path d="M15653 3045 c-7 -19 -5 -22 30 -30 36 -9 37 17 2 33 -21 10 -27 9
-32 -3z"/>
<path d="M5524 3003 c-4 -21 -20 -90 -36 -153 -16 -63 -36 -142 -43 -175 -8
-33 -25 -105 -39 -160 -13 -55 -31 -134 -40 -175 -8 -41 -25 -118 -36 -170
-43 -198 -51 -242 -46 -247 3 -3 7 0 10 8 9 29 95 377 115 464 11 50 31 137
45 195 13 58 27 125 31 150 7 51 29 147 50 231 18 65 18 69 5 69 -5 0 -12 -17
-16 -37z"/>
<path d="M16948 3014 c-38 -20 -28 -46 13 -32 30 10 33 15 21 35 -5 8 -14 7
-34 -3z"/>
<path d="M5688 2963 c-3 -16 -30 -125 -61 -243 -48 -188 -80 -328 -144 -630
-8 -41 -22 -101 -29 -133 -18 -75 -16 -106 2 -47 12 39 96 364 124 485 34 142
53 231 85 387 19 98 38 185 41 193 4 8 2 15 -4 15 -5 0 -12 -12 -14 -27z"/>
<path d="M5857 2953 c-25 -42 -248 -1029 -246 -1089 2 -49 124 448 210 855 44
208 52 262 36 234z"/>
<path d="M15596 2893 c-8 -20 -6 -21 32 -29 42 -9 44 20 3 34 -24 8 -31 7 -35
-5z"/>
<path d="M16987 2863 c-28 -7 -14 -28 19 -28 19 0 30 6 32 18 3 17 -12 20 -51
10z"/>
<path d="M15570 2725 c0 -10 11 -15 35 -15 24 0 35 5 35 15 0 10 -11 15 -35
15 -24 0 -35 -5 -35 -15z"/>
<path d="M16990 2690 c0 -16 7 -20 30 -20 23 0 30 4 30 20 0 16 -7 20 -30 20
-23 0 -30 -4 -30 -20z"/>
<path d="M15613 2583 c-13 -2 -23 -11 -23 -19 0 -22 54 -14 58 9 2 9 0 16 -5
16 -4 -1 -18 -4 -30 -6z"/>
<path d="M16965 2539 c-9 -14 -4 -18 33 -25 25 -5 32 -3 32 9 0 24 -52 38 -65
16z"/>
<path d="M15653 2428 c-42 -20 -22 -45 22 -28 15 6 25 15 23 22 -6 17 -19 18
-45 6z"/>
<path d="M16914 2399 c-8 -13 35 -51 48 -43 15 9 8 33 -11 44 -25 13 -28 13
-37 -1z"/>
<path d="M5872 2340 c0 -14 2 -19 5 -12 2 6 2 18 0 25 -3 6 -5 1 -5 -13z"/>
<path d="M15732 2289 c-13 -10 -21 -23 -17 -29 9 -14 20 -13 45 8 18 15 20 20
9 29 -11 9 -20 7 -37 -8z"/>
<path d="M16824 2268 c-4 -6 3 -19 16 -30 18 -15 26 -16 37 -6 12 10 11 14 -9
30 -27 21 -34 22 -44 6z"/>
<path d="M15834 2169 c-15 -17 -16 -22 -4 -29 16 -10 50 14 50 37 0 20 -24 16
-46 -8z"/>
<path d="M16716 2161 c-3 -5 3 -20 13 -32 16 -19 22 -21 32 -12 10 10 9 17 -6
33 -20 22 -31 25 -39 11z"/>
<path d="M15971 2084 c-10 -22 -9 -29 1 -35 16 -10 27 0 30 30 4 34 -16 37
-31 5z"/>
<path d="M16585 2063 c8 -35 11 -37 30 -30 12 5 13 11 3 32 -16 35 -42 34 -33
-2z"/>
<path d="M16125 2045 c-3 -8 -7 -22 -10 -30 -2 -9 2 -18 11 -22 18 -7 19 -5
28 28 4 19 1 29 -9 33 -9 3 -18 -1 -20 -9z"/>
<path d="M16433 2019 c4 -13 7 -27 7 -31 0 -5 7 -8 16 -8 23 0 14 54 -10 58
-15 3 -18 0 -13 -19z"/>
<path d="M16278 2000 c-4 -24 -1 -30 14 -30 13 0 18 8 18 30 0 19 -5 30 -14
30 -8 0 -16 -13 -18 -30z"/>
<path d="M5205 1788 c-4 -24 -11 -48 -16 -53 -16 -20 7 -31 106 -53 55 -12
140 -30 189 -42 126 -28 122 -29 135 32 7 28 8 55 4 58 -5 4 -71 22 -148 40
-77 18 -163 39 -192 46 -71 19 -70 19 -78 -28z"/>
<path d="M15784 1632 c-45 -54 -88 -121 -123 -189 -34 -66 -67 -154 -53 -138
17 19 220 365 214 364 -4 0 -21 -17 -38 -37z"/>
<path d="M5165 1638 c-2 -7 -8 -34 -13 -59 l-9 -47 61 -15 c81 -21 271 -64
318 -73 41 -7 49 3 63 78 l7 35 -54 11 c-29 6 -122 27 -207 47 -180 41 -161
38 -166 23z"/>
<path d="M5610 1265 c-7 -9 -8 -15 -2 -15 5 0 12 7 16 15 3 8 4 15 2 15 -2 0
-9 -7 -16 -15z"/>
</g>
</svg>
