<?xml version="1.0" standalone="no"?>
<!DOCTYPE svg PUBLIC "-//W3C//DTD SVG 20010904//EN"
 "http://www.w3.org/TR/2001/REC-SVG-20010904/DTD/svg10.dtd">
<svg version="1.0" xmlns="http://www.w3.org/2000/svg"
 width="2000.000000pt" height="1192.000000pt" viewBox="0 0 2000.000000 1192.000000"
 preserveAspectRatio="xMidYMid meet">

<g transform="translate(0.000000,1192.000000) scale(0.100000,-0.100000)"
fill="#000000" stroke="none">
<path d="M10889 9311 c-81 -81 25 -201 115 -130 21 16 26 29 26 64 0 36 -5 48
-31 69 -40 34 -74 33 -110 -3z"/>
<path d="M8144 6875 c-154 -33 -237 -118 -235 -240 0 -38 -7 -71 -24 -107 -38
-81 -34 -139 13 -216 20 -34 64 -94 96 -133 55 -68 60 -71 73 -53 13 18 24 53
38 120 5 29 4 32 -24 37 -79 16 -111 129 -46 159 24 11 32 9 86 -20 3 -1 4 29
2 67 l-3 69 52 -28 c64 -34 132 -44 233 -35 l76 7 -58 29 c-32 16 -46 26 -31
23 52 -11 193 -9 222 4 l29 13 -54 27 -54 27 78 6 c43 4 81 9 84 13 23 22
-109 162 -187 198 -104 49 -239 61 -366 33z"/>
<path d="M8498 6523 c7 -3 16 -2 19 1 4 3 -2 6 -13 5 -11 0 -14 -3 -6 -6z"/>
<path d="M8155 6500 c-3 -6 1 -7 9 -4 18 7 21 14 7 14 -6 0 -13 -4 -16 -10z"/>
<path d="M8573 6484 c0 -17 2 -22 7 -13 5 6 6 18 3 26 -8 19 -10 16 -10 -13z"/>
<path d="M8188 6473 c7 -3 16 -2 19 1 4 3 -2 6 -13 5 -11 0 -14 -3 -6 -6z"/>
<path d="M7245 6210 c-9 -27 2 -39 70 -75 50 -27 57 -28 68 -14 7 8 21 19 32
23 16 6 8 14 -50 46 -79 45 -111 50 -120 20z"/>
<path d="M7518 6189 c-43 -21 -52 -35 -12 -17 21 10 27 9 35 -3 8 -11 9 -10 7
6 -2 12 2 19 10 18 6 -2 12 2 12 7 0 13 -8 12 -52 -11z"/>
<path d="M6169 6023 c25 -24 36 -55 84 -238 57 -217 234 -877 243 -907 3 -9
-4 -26 -15 -37 -20 -20 -32 -21 -273 -21 l-253 0 3 321 c2 231 -1 325 -9 335
-8 10 -38 14 -109 14 -90 0 -97 -1 -109 -23 -9 -17 -11 -103 -9 -335 l3 -312
-192 0 -193 0 0 -95 c0 -52 1 -95 3 -96 15 -5 4445 -9 4565 -4 l163 7 -3 92
-3 91 -1769 5 c-1501 4 -1767 7 -1753 19 10 7 17 21 17 30 0 9 -27 118 -61
241 -33 124 -96 360 -140 525 -44 165 -87 319 -95 343 -17 45 -53 72 -99 72
l-25 0 29 -27z"/>
<path d="M5265 5990 c-23 -25 -12 -67 20 -82 30 -13 55 3 55 36 0 47 -48 76
-75 46z"/>
<path d="M7648 5980 l-17 -29 62 -30 c34 -17 80 -33 101 -37 l39 -7 -27 36
c-25 32 -114 97 -134 97 -4 0 -15 -13 -24 -30z"/>
<path d="M7180 4860 c-23 -7 -23 -8 -3 -9 12 -1 25 4 28 9 3 6 5 10 3 9 -2 -1
-14 -5 -28 -9z"/>
<path d="M6933 3844 c-19 -9 -69 -102 -93 -174 -35 -102 -35 -266 -1 -1063 17
-394 31 -731 31 -747 l0 -30 172 2 171 3 24 75 c70 228 146 608 183 915 34
291 34 289 48 155 18 -170 112 -1127 112 -1139 0 -7 56 -11 169 -11 l169 0 36
113 c45 143 60 205 86 347 18 104 29 178 61 440 6 47 14 211 17 365 l7 280
265 6 c270 6 334 14 423 51 l47 20 0 194 0 194 -463 0 c-255 0 -686 2 -958 5
-272 3 -499 3 -506 -1z"/>
<path d="M8973 3842 l-32 -3 0 -145 c0 -92 3 -144 10 -144 24 0 60 116 74 236
6 57 2 62 -52 56z"/>
<path d="M3514 2276 c-3 -7 -4 -155 -2 -328 l3 -315 30 -49 c23 -37 43 -55 85
-76 l55 -27 -202 -1 -203 0 0 -28 0 -29 148 -6 c266 -12 8247 -20 11167 -11
1573 4 2766 11 2650 15 -229 7 -3930 19 -6002 19 l-1292 0 -3 78 -3 77 -77 1
-78 1 0 -78 0 -79 -405 0 -405 0 0 78 0 77 -38 3 c-20 2 -56 0 -79 -3 l-43 -6
0 -75 0 -74 -453 0 -454 0 -14 153 -14 152 -149 0 -149 0 -15 -45 c-8 -25 -16
-46 -18 -48 -1 -2 -41 -12 -88 -22 -46 -10 -98 -26 -114 -34 -40 -21 -87 -77
-102 -120 -8 -25 -18 -36 -31 -36 -23 0 -25 9 -39 170 -6 69 -15 129 -19 133
-4 4 -72 6 -151 5 l-143 -3 -15 -43 c-15 -47 -42 -64 -123 -77 -61 -10 -109
-31 -141 -62 l-28 -27 0 26 c0 28 -27 38 -99 38 -59 0 -66 -10 -67 -92 l-1
-73 -399 0 -399 0 -5 81 -5 80 -77 2 -78 1 0 -85 0 -84 -385 0 -385 0 0 25 0
25 -197 0 -198 1 39 19 c54 27 85 58 107 105 17 36 19 70 19 363 l0 322 -455
0 c-375 0 -457 -2 -461 -14z"/>
</g>
</svg>
