<svg width="563" height="382" viewBox="0 0 563 382" fill="none" xmlns="http://www.w3.org/2000/svg">
<path d="M48.9192 341.887C61.2662 333.804 64.4025 318.321 64.2738 304.292C64.2738 301.957 64.5706 299.504 63.4923 297.426C62.4139 295.349 59.8317 293.894 57.6848 294.824C55.9139 295.596 55.1026 297.594 54.0737 299.237C52.7019 301.435 50.7367 303.201 48.4048 304.332C46.8812 305.064 45.0113 305.489 43.5471 304.648C41.5684 303.491 41.3606 300.691 41.4299 298.386C41.5684 294.059 41.7003 289.736 41.8256 285.416C42.0284 283.093 41.8479 280.754 41.2914 278.49C40.9963 277.369 40.4373 276.335 39.6611 275.475C38.8849 274.614 37.9139 273.952 36.8294 273.543C34.6034 272.871 31.8134 274.078 31.2792 276.333C31.1684 277.292 31.1222 278.257 31.1407 279.222C31.1427 279.706 31.0008 280.18 30.733 280.584C30.4653 280.987 30.0838 281.302 29.6369 281.488C29.1506 281.533 28.661 281.453 28.2143 281.255C27.7676 281.058 27.3787 280.75 27.0844 280.36C24.8319 277.841 23.0071 274.97 21.6826 271.862C20.36 268.757 18.6729 265.821 16.6567 263.116C14.5197 260.504 11.522 258.406 8.15822 258.169C4.79445 257.932 1.16355 259.871 0.243464 263.116C-0.676627 266.361 1.16355 269.734 3.2115 272.425C6.24237 276.438 9.83798 279.99 13.8865 282.972C14.6748 283.426 15.2983 284.119 15.6673 284.951C16.1323 286.514 14.6087 288.008 13.0555 288.482C11.2845 289.017 9.38501 288.789 7.55472 288.957C5.72443 289.126 3.70616 289.877 2.97405 291.569C1.9847 293.924 3.90403 296.457 5.83325 298.129C9.72462 301.493 14.1611 304.17 18.952 306.043C20.7186 306.572 22.3746 307.416 23.8393 308.537C25.2046 309.763 25.9961 311.871 25.1156 313.483C24.2351 315.096 22.0585 315.571 20.248 315.195C18.5022 314.675 16.8043 314.006 15.1727 313.196C11.9672 311.92 7.79216 312.039 5.65517 314.75C4.99529 315.675 4.56199 316.743 4.39016 317.867C4.21832 318.991 4.31274 320.139 4.66583 321.22C5.40478 323.369 6.56896 325.348 8.08896 327.037C13.0779 333.247 19.6213 338.026 27.0547 340.888C34.4847 343.638 41.42 344.499 48.9291 341.986" fill="#6A7DFF"/>
<path d="M3.70605 260.059L3.9336 260.286L4.61625 260.909C5.21975 261.463 6.10026 262.275 7.21822 263.353C10.3731 266.392 13.2965 269.663 15.964 273.138C17.6558 275.324 19.4168 277.807 21.257 280.498C23.0972 283.189 25.0264 286.098 26.9557 289.215C28.9903 292.46 30.8433 295.816 32.5059 299.266C33.3765 301.057 34.1383 302.937 34.91 304.846C35.6817 306.756 36.4731 308.695 37.2646 310.664C40.2978 318.015 42.9105 325.533 45.0903 333.181C46.8445 339.435 48.0006 345.842 48.5431 352.315C48.8979 356.679 48.8648 361.066 48.4442 365.424C48.2859 366.957 48.1375 368.154 48.0089 368.966C47.9495 369.351 47.91 369.658 47.8704 369.886C47.8637 369.991 47.8637 370.097 47.8704 370.202C47.9037 370.102 47.9302 369.999 47.9495 369.896C47.9495 369.668 48.0485 369.361 48.1177 368.976C48.276 368.174 48.4541 366.997 48.6421 365.444C49.1271 361.077 49.2065 356.676 48.8795 352.295C48.3825 345.796 47.2526 339.361 45.5059 333.082C43.3414 325.409 40.735 317.868 37.6999 310.495C36.8953 308.517 36.1104 306.581 35.3453 304.688C34.5637 302.778 33.792 300.889 32.9214 299.078C31.2424 295.617 29.373 292.251 27.3217 288.997C25.343 285.88 23.4237 282.992 21.5835 280.301C19.7433 277.61 17.9526 275.136 16.2312 272.95C13.524 269.482 10.5466 266.233 7.32705 263.234C6.18931 262.176 5.27911 261.374 4.65582 260.85L3.95339 260.247C3.7951 260.118 3.71595 260.049 3.70605 260.059Z" fill="#303135"/>
<path d="M32.773 299.059C32.8905 298.739 32.9734 298.407 33.0203 298.07C33.1588 297.427 33.3369 296.507 33.5249 295.349C33.9107 293.044 34.346 289.848 34.8011 286.326C35.2562 282.804 35.7311 279.618 36.1565 277.323C36.3643 276.185 36.5424 275.255 36.671 274.612C36.7603 274.29 36.8134 273.958 36.8293 273.623C36.6795 273.938 36.5698 274.27 36.5028 274.612C36.3247 275.236 36.0972 276.156 35.8498 277.294C35.3551 279.579 34.8605 282.765 34.3757 286.297C33.8909 289.829 33.5249 292.925 33.2281 295.339C33.0797 296.418 32.951 297.318 32.862 298.07C32.7942 298.395 32.7643 298.727 32.773 299.059Z" fill="#303135"/>
<path d="M2.68701 292.766C3.0799 292.86 3.4807 292.916 3.88412 292.934C4.65581 293.023 5.78366 293.142 7.15885 293.34C9.91912 293.696 13.7182 294.329 17.8735 295.2C22.0287 296.071 25.7882 297.05 28.4298 297.812C29.7753 298.188 30.8537 298.524 31.5957 298.752C31.9766 298.894 32.3711 298.997 32.773 299.058C32.4117 298.877 32.0381 298.722 31.655 298.593C30.9229 298.316 29.8544 297.94 28.5188 297.525C25.8575 296.674 22.1276 295.665 17.9625 294.784C14.4062 294.02 10.8136 293.435 7.19843 293.033C5.80345 292.875 4.6756 292.806 3.90391 292.776C3.49964 292.732 3.09194 292.729 2.68701 292.766Z" fill="#303135"/>
<path d="M45.1201 332.518C45.2079 332.41 45.2811 332.29 45.3378 332.162L45.8819 331.094C46.3469 330.164 46.99 328.808 47.7617 327.136C49.305 323.753 51.2837 319.014 53.391 313.76C55.4983 308.507 57.4474 303.748 58.9116 300.345L60.6627 296.308L61.1376 295.21C61.2365 294.953 61.286 294.814 61.2662 294.814C61.1847 294.926 61.1151 295.045 61.0585 295.171L60.5143 296.239C60.0394 297.169 59.4062 298.524 58.6346 300.196C57.0912 303.58 55.1125 308.319 52.9953 313.572C50.8781 318.826 48.9489 323.585 47.4747 326.988C46.7624 328.65 46.1688 330.015 45.7236 331.024L45.2586 332.123C45.1955 332.248 45.149 332.381 45.1201 332.518Z" fill="#303135"/>
<path d="M5.2793 318.786C5.2793 318.786 5.40791 318.865 5.66514 318.964L6.82267 319.37L11.0966 320.854C14.6979 322.1 19.6545 323.881 25.1255 325.86C30.5966 327.839 35.573 329.57 39.2039 330.747C41.0243 331.341 42.4885 331.796 43.5175 332.093L44.6948 332.429C44.9718 332.508 45.1202 332.538 45.1202 332.518C44.9944 332.449 44.8618 332.392 44.7245 332.35L43.5669 331.935L39.3029 330.46C35.7016 329.214 30.745 327.433 25.274 325.454C19.8029 323.476 14.8166 321.734 11.1956 320.557C9.37519 319.973 7.90106 319.508 6.88204 319.212L5.69482 318.875C5.55961 318.832 5.42042 318.802 5.2793 318.786Z" fill="#303135"/>
<path d="M450.405 237.492L390.718 237.215C389.009 237.211 387.319 236.87 385.743 236.211C384.167 235.551 382.736 234.587 381.534 233.374C380.332 232.161 379.381 230.722 378.736 229.14C378.091 227.558 377.765 225.864 377.777 224.156L378.41 74.9327C378.419 73.2272 378.764 71.5403 379.426 69.9683C380.087 68.3963 381.052 66.97 382.265 65.771C383.477 64.572 384.915 63.6237 386.494 62.9804C388.074 62.3371 389.764 62.0113 391.47 62.0217L451.157 62.2888C454.599 62.3019 457.896 63.6801 460.324 66.1209C462.752 68.5617 464.113 71.8659 464.107 75.3086L463.474 224.541C463.469 226.251 463.127 227.942 462.466 229.519C461.806 231.095 460.842 232.526 459.628 233.729C458.413 234.932 456.974 235.884 455.391 236.53C453.809 237.175 452.114 237.502 450.405 237.492Z" fill="#303135"/>
<path d="M451.078 67.4827H439.503C439.126 67.4879 438.755 67.5672 438.409 67.7163C438.063 67.8654 437.751 68.0813 437.489 68.3515C437.227 68.6218 437.021 68.9411 436.883 69.2911C436.744 69.6412 436.676 70.0151 436.683 70.3914V72.4888C436.691 73.2482 436.4 73.9803 435.872 74.5265C435.344 75.0728 434.623 75.3892 433.863 75.4073L411.296 75.2985C410.917 75.2896 410.544 75.2055 410.198 75.0509C409.852 74.8964 409.54 74.6746 409.28 74.3984C409.021 74.1222 408.819 73.7972 408.686 73.4422C408.553 73.0871 408.492 72.7093 408.506 72.3305V70.2133C408.52 69.8348 408.458 69.4575 408.324 69.1031C408.191 68.7487 407.989 68.4241 407.73 68.1482C407.47 67.8723 407.159 67.6505 406.813 67.4955C406.468 67.3405 406.095 67.2555 405.716 67.2453H401.64H391.51C390.316 67.2387 389.132 67.4675 388.026 67.9184C386.921 68.3693 385.915 69.0336 385.066 69.8732C384.217 70.7129 383.542 71.7116 383.079 72.8122C382.616 73.9128 382.374 75.0939 382.368 76.2879L381.745 221.949C381.739 224.361 382.692 226.677 384.393 228.387C386.094 230.098 388.405 231.063 390.817 231.071L450.385 231.348C452.797 231.358 455.114 230.413 456.83 228.718C458.545 227.023 459.519 224.717 459.537 222.305L460.15 76.644C460.159 75.4459 459.932 74.2578 459.48 73.1479C459.028 72.0381 458.362 71.0285 457.519 70.1772C456.676 69.3258 455.673 68.6495 454.567 68.1871C453.462 67.7246 452.276 67.4853 451.078 67.4827Z" fill="white"/>
<path d="M450.098 166.596H391.153V170.543H450.098V166.596Z" fill="#303135"/>
<path d="M448.001 182.119C448.001 182.257 435.417 182.376 419.904 182.376C404.391 182.376 391.796 182.257 391.796 182.119C391.796 181.98 404.381 181.861 419.904 181.861C435.427 181.861 448.001 181.98 448.001 182.119Z" fill="#303135"/>
<path d="M448.001 88.6156C448.001 88.764 435.417 88.8728 419.904 88.8728C404.391 88.8728 391.796 88.764 391.796 88.6156C391.796 88.4672 404.381 88.3584 419.904 88.3584C435.427 88.3584 448.001 88.4474 448.001 88.6156Z" fill="#303135"/>
<path d="M448.001 189.301C448.001 189.44 435.417 189.558 419.904 189.558C404.391 189.558 391.796 189.44 391.796 189.301C391.796 189.163 404.381 189.044 419.904 189.044C435.427 189.044 448.001 189.153 448.001 189.301Z" fill="#303135"/>
<path d="M448.001 196.454C448.001 196.592 435.417 196.711 419.904 196.711C404.391 196.711 391.796 196.592 391.796 196.454C391.796 196.315 404.381 196.196 419.904 196.196C435.427 196.196 448.001 196.335 448.001 196.454Z" fill="#303135"/>
<path d="M448.001 203.657C448.001 203.795 435.417 203.914 419.904 203.914C404.391 203.914 391.796 203.795 391.796 203.657C391.796 203.518 404.381 203.399 419.904 203.399C435.427 203.399 448.001 203.508 448.001 203.657Z" fill="#303135"/>
<path d="M448.001 210.83C448.001 210.978 435.417 211.087 419.904 211.087C404.391 211.087 391.796 210.978 391.796 210.83C391.796 210.681 404.381 210.572 419.904 210.572C435.427 210.572 448.001 210.691 448.001 210.83Z" fill="#303135"/>
<path d="M448.802 218.971C448.802 219.11 436.218 219.228 420.705 219.228C405.192 219.228 392.598 219.11 392.598 218.971C392.598 218.833 405.182 218.714 420.705 218.714C436.228 218.714 448.802 218.823 448.802 218.971Z" fill="#303135"/>
<path d="M450.89 96.7773H391.796V153.952H450.89V96.7773Z" fill="#E0E0E0"/>
<path d="M396.377 149.054L412.731 119.631L426.097 138.438L434.219 128.446L446.309 149.054H396.377Z" fill="#6A7DFF"/>
<path d="M431.795 113.912C431.795 114.754 431.546 115.576 431.078 116.276C430.611 116.975 429.947 117.521 429.169 117.843C428.392 118.165 427.537 118.249 426.711 118.085C425.886 117.921 425.128 117.516 424.533 116.921C423.938 116.326 423.533 115.568 423.369 114.742C423.205 113.917 423.289 113.062 423.611 112.284C423.933 111.507 424.478 110.843 425.178 110.375C425.877 109.908 426.7 109.658 427.541 109.658C428.669 109.661 429.749 110.11 430.547 110.907C431.344 111.704 431.793 112.785 431.795 113.912Z" fill="#6A7DFF"/>
<path d="M446.309 149.213C446.309 149.213 446.309 149.133 446.309 148.975C446.309 148.817 446.309 148.589 446.309 148.312C446.309 147.699 446.309 146.848 446.309 145.74C446.309 143.474 446.309 140.19 446.24 136.025C446.24 127.675 446.171 115.783 446.121 101.506L446.359 101.744H396.436C396.367 101.803 396.961 101.21 396.713 101.467V114.328C396.713 118.533 396.713 122.649 396.713 126.646C396.713 134.659 396.713 142.228 396.713 149.193L396.466 148.946L432.567 149.074L442.757 149.133H445.458H446.151H446.398H446.181H445.508H442.856L432.726 149.193L396.466 149.321H396.219V149.074C396.219 142.149 396.219 134.541 396.219 126.527C396.219 122.57 396.219 118.414 396.219 114.21V101.348C395.961 101.595 396.555 100.992 396.506 101.061H446.428H446.527V101.477C446.468 115.822 446.428 127.764 446.398 136.153C446.398 140.289 446.398 143.554 446.339 145.809C446.339 146.898 446.339 147.739 446.339 148.332C446.339 148.599 446.339 148.807 446.339 148.975C446.34 149.055 446.33 149.135 446.309 149.213Z" fill="#303135"/>
<path d="M140.266 11.4269V143.227C140.266 149.538 145.382 154.654 151.693 154.654H350.788C357.099 154.654 362.215 149.538 362.215 143.227V11.4269C362.215 5.11598 357.099 -1.52588e-05 350.788 -1.52588e-05H151.693C145.382 -1.52588e-05 140.266 5.11598 140.266 11.4269Z" fill="#303135"/>
<path d="M155.442 4.87796V149.777H340.796V4.87796H155.442Z" fill="white"/>
<path d="M351.055 71.3906C352.229 71.3906 353.377 71.7388 354.353 72.391C355.329 73.0433 356.09 73.9704 356.539 75.0551C356.989 76.1397 357.106 77.3333 356.877 78.4848C356.648 79.6363 356.083 80.694 355.253 81.5241C354.422 82.3543 353.365 82.9197 352.213 83.1487C351.062 83.3778 349.868 83.2602 348.784 82.8109C347.699 82.3616 346.772 81.6008 346.12 80.6246C345.467 79.6484 345.119 78.5007 345.119 77.3267C345.119 75.7523 345.745 74.2425 346.858 73.1293C347.971 72.016 349.481 71.3906 351.055 71.3906Z" fill="#303135"/>
<path d="M146.657 55.2449V99.4092C146.657 100.076 147.197 100.616 147.864 100.616H147.903C148.57 100.616 149.11 100.076 149.11 99.4092V55.2449C149.11 54.5783 148.57 54.0379 147.903 54.0379H147.864C147.197 54.0379 146.657 54.5783 146.657 55.2449Z" fill="#303135"/>
<path d="M298.937 15.7598H239.992V19.7072H298.937V15.7598Z" fill="#303135"/>
<path d="M222.154 83.5596H163.208V87.5071H222.154V83.5596Z" fill="#303135"/>
<path d="M313.292 30.4418C313.292 30.5902 296.889 30.699 276.686 30.699C256.484 30.699 240.031 30.5902 240.031 30.4418C240.031 30.2934 256.435 30.1846 276.686 30.1846C296.938 30.1846 313.292 30.3033 313.292 30.4418Z" fill="#303135"/>
<path d="M313.292 39.059C313.292 39.1975 296.889 39.3162 276.686 39.3162C256.484 39.3162 240.031 39.1975 240.031 39.059C240.031 38.9205 256.435 38.8018 276.686 38.8018C296.938 38.8018 313.292 38.9106 313.292 39.059Z" fill="#303135"/>
<path d="M313.292 47.6664C313.292 47.8049 296.889 47.9236 276.686 47.9236C256.484 47.9236 240.031 47.8049 240.031 47.6664C240.031 47.5279 256.435 47.4092 276.686 47.4092C296.938 47.4092 313.292 47.5279 313.292 47.6664Z" fill="#303135"/>
<path d="M313.292 56.2738C313.292 56.4222 296.889 56.5311 276.686 56.5311C256.484 56.5311 240.031 56.4222 240.031 56.2738C240.031 56.1254 256.435 56.0166 276.686 56.0166C296.938 56.0166 313.292 56.1353 313.292 56.2738Z" fill="#303135"/>
<path d="M313.292 64.8715C313.292 65.01 296.889 65.1287 276.686 65.1287C256.484 65.1287 240.031 65.01 240.031 64.8715C240.031 64.733 256.435 64.6143 276.686 64.6143C296.938 64.6143 313.292 64.7429 313.292 64.8715Z" fill="#303135"/>
<path d="M297.215 73.4984C297.215 73.6369 284.403 73.7557 268.604 73.7557C252.804 73.7557 239.992 73.6369 239.992 73.4984C239.992 73.3599 252.794 73.2412 268.604 73.2412C284.413 73.2412 297.215 73.3599 297.215 73.4984Z" fill="#303135"/>
<path d="M260.016 99.0824C260.016 99.2209 238.488 99.3396 211.934 99.3396C185.38 99.3396 163.852 99.2209 163.852 99.0824C163.852 98.9439 185.38 98.8252 211.934 98.8252C238.488 98.8252 260.016 98.934 260.016 99.0824Z" fill="#303135"/>
<path d="M260.016 106.255C260.016 106.404 238.488 106.512 211.934 106.512C185.38 106.512 163.852 106.404 163.852 106.255C163.852 106.107 185.38 105.998 211.934 105.998C238.488 105.998 260.016 106.117 260.016 106.255Z" fill="#303135"/>
<path d="M260.016 113.438C260.016 113.576 238.488 113.695 211.934 113.695C185.38 113.695 163.852 113.576 163.852 113.438C163.852 113.299 185.38 113.181 211.934 113.181C238.488 113.181 260.016 113.289 260.016 113.438Z" fill="#303135"/>
<path d="M260.016 120.611C260.016 120.759 238.488 120.868 211.934 120.868C185.38 120.868 163.852 120.759 163.852 120.611C163.852 120.462 185.38 120.354 211.934 120.354C238.488 120.354 260.016 120.472 260.016 120.611Z" fill="#303135"/>
<path d="M260.016 127.793C260.016 127.932 238.488 128.051 211.934 128.051C185.38 128.051 163.852 127.932 163.852 127.793C163.852 127.655 185.38 127.536 211.934 127.536C238.488 127.536 260.016 127.655 260.016 127.793Z" fill="#303135"/>
<path d="M222.945 13.7324H163.852V70.9067H222.945V13.7324Z" fill="#6A7DFF"/>
<path d="M168.432 66.0188L184.786 36.5957L198.152 55.3932L206.275 45.4108L218.364 66.0188H168.432Z" fill="#E0E0E0"/>
<path d="M203.851 30.8673C203.853 31.7092 203.605 32.5326 203.138 33.2335C202.672 33.9344 202.009 34.4812 201.231 34.8047C200.454 35.1282 199.598 35.2139 198.773 35.0509C197.947 34.8878 197.188 34.4835 196.592 33.8889C195.996 33.2943 195.59 32.5363 195.425 31.7108C195.26 30.8853 195.343 30.0294 195.665 29.2515C195.987 28.4736 196.532 27.8086 197.232 27.3407C197.932 26.8728 198.755 26.623 199.596 26.623C200.723 26.623 201.804 27.0699 202.601 27.8656C203.399 28.6612 203.848 29.7408 203.851 30.8673Z" fill="#E0E0E0"/>
<path d="M218.364 66.1775C218.364 66.1775 218.364 66.0885 218.364 65.9401C218.364 65.7917 218.364 65.5542 218.364 65.2772C218.364 64.6638 218.364 63.8031 218.364 62.7049C218.364 60.4294 218.364 57.1547 218.305 52.9896C218.305 44.6395 218.236 32.7476 218.186 18.4713L218.424 18.7088H168.501C168.432 18.7681 169.026 18.1844 168.778 18.4417V24.9021C168.778 27.0391 168.778 29.1661 168.778 31.2636V43.5809C168.778 51.5946 168.778 59.1631 168.778 66.1281L168.531 65.8807L204.632 65.9994L214.813 66.0687H217.513H218.216H218.463H218.246H217.573H214.921L204.79 66.138L168.531 66.2567H168.284V66.0093C168.284 59.0839 168.284 51.4759 168.284 43.4622C168.284 39.4586 168.284 35.3529 168.284 31.1448V18.2834C168.026 18.5307 168.62 17.9272 168.571 17.9866H218.493H218.74V18.2339C218.691 32.5695 218.651 44.5208 218.622 52.9104C218.622 57.0459 218.572 60.3107 218.562 62.5664C218.562 63.6448 218.562 64.5451 218.562 65.0892C218.562 65.3564 218.562 65.5641 218.562 65.7323C218.555 65.9005 218.484 66.0596 218.364 66.1775Z" fill="#303135"/>
<path d="M315.103 91.1387H273.283V131.603H315.103V91.1387Z" fill="#6A7DFF"/>
<path d="M276.528 128.14L288.094 107.324L297.562 120.631L303.31 113.557L311.858 128.14H276.528Z" fill="#E0E0E0"/>
<path d="M301.588 103.268C301.588 103.855 301.414 104.429 301.088 104.917C300.762 105.405 300.299 105.785 299.756 106.01C299.214 106.235 298.617 106.293 298.041 106.179C297.466 106.064 296.937 105.782 296.522 105.367C296.107 104.951 295.824 104.423 295.709 103.847C295.595 103.271 295.654 102.674 295.878 102.132C296.103 101.59 296.483 101.126 296.971 100.8C297.46 100.474 298.033 100.3 298.62 100.3C299.408 100.3 300.162 100.613 300.719 101.169C301.276 101.726 301.588 102.481 301.588 103.268Z" fill="#E0E0E0"/>
<path d="M311.857 128.249C311.857 128.249 311.857 128.189 311.857 128.09C311.857 127.991 311.857 127.813 311.857 127.616C311.857 127.18 311.857 126.626 311.857 125.795C311.857 124.192 311.857 121.838 311.857 118.87C311.857 112.934 311.808 104.544 311.768 94.4428L311.937 94.611H276.607C276.558 94.611 276.983 94.235 276.805 94.423V103.505C276.805 106.473 276.805 109.379 276.805 112.221C276.805 117.89 276.805 123.243 276.805 128.17L276.637 128.001L302.083 128.189H309.285H311.204H311.867C311.867 128.189 311.818 128.189 311.719 128.189H311.244H309.364L302.191 128.239L276.538 128.328H276.36V128.15C276.36 123.203 276.36 117.87 276.36 112.202V94.5516C276.182 94.7198 276.607 94.2944 276.567 94.3439H311.897H312.075V94.5121C312.075 104.663 312.006 113.112 311.986 119.048C311.986 122.016 311.986 124.291 311.937 125.884C311.937 126.656 311.937 127.249 311.937 127.675C311.937 127.863 311.937 128.011 311.937 128.13C311.937 128.249 311.867 128.259 311.857 128.249Z" fill="#303135"/>
<path d="M345.208 170.286H63.7888C55.8277 170.286 49.374 176.74 49.374 184.701V361.032C49.374 368.993 55.8277 375.447 63.7888 375.447H345.208C353.169 375.447 359.623 368.993 359.623 361.032V184.701C359.623 176.74 353.169 170.286 345.208 170.286Z" fill="#303135"/>
<path d="M36.4038 360.28H372.534V360.627C372.534 365.297 370.678 369.776 367.376 373.079C364.073 376.382 359.594 378.237 354.923 378.237H54.0141C49.3436 378.237 44.8643 376.382 41.5617 373.079C38.2592 369.776 36.4038 365.297 36.4038 360.627V360.28Z" fill="#303135"/>
<path d="M350.432 178.438H57.7046V351.693H350.432V178.438Z" fill="#E0E0E0"/>
<path d="M173.913 360.28L178.088 366.919H236.776L240.654 360.28H173.913Z" fill="#303135"/>
<path d="M336.977 189.984H67.4692V351.633H336.977V189.984Z" fill="#FAFAFA"/>
<path d="M78.9755 197.948C78.9775 198.397 78.8463 198.836 78.5985 199.209C78.3508 199.583 77.9976 199.875 77.5838 200.048C77.17 200.221 76.7141 200.268 76.274 200.181C75.8339 200.095 75.4293 199.88 75.1114 199.564C74.7936 199.247 74.5768 198.843 74.4886 198.404C74.4004 197.964 74.4447 197.508 74.6158 197.093C74.787 196.679 75.0774 196.324 75.4502 196.075C75.823 195.826 76.2614 195.692 76.7099 195.692C77.3091 195.692 77.8839 195.93 78.3085 196.352C78.733 196.775 78.9729 197.349 78.9755 197.948Z" fill="#303135"/>
<path d="M88.1962 197.948C88.1982 198.397 88.0667 198.836 87.8185 199.211C87.5703 199.585 87.2166 199.877 86.8022 200.049C86.3878 200.222 85.9315 200.268 85.4911 200.181C85.0507 200.093 84.6461 199.877 84.3286 199.56C84.0112 199.243 83.7952 198.838 83.7081 198.398C83.621 197.957 83.6667 197.501 83.8394 197.086C84.0121 196.672 84.304 196.318 84.6781 196.07C85.0522 195.822 85.4916 195.69 85.9405 195.692C86.5388 195.692 87.1125 195.93 87.5355 196.353C87.9586 196.776 88.1962 197.35 88.1962 197.948Z" fill="#303135"/>
<path d="M97.4267 197.948C97.4286 198.397 97.2974 198.836 97.0497 199.209C96.8019 199.583 96.4488 199.875 96.035 200.048C95.6212 200.221 95.1653 200.268 94.7252 200.181C94.2851 200.095 93.8804 199.88 93.5626 199.564C93.2448 199.247 93.028 198.843 92.9398 198.404C92.8515 197.964 92.8958 197.508 93.067 197.093C93.2382 196.679 93.5286 196.324 93.9014 196.075C94.2741 195.826 94.7126 195.692 95.1611 195.692C95.4581 195.691 95.7525 195.748 96.0273 195.861C96.3022 195.974 96.552 196.14 96.7625 196.35C96.973 196.559 97.1401 196.808 97.254 197.083C97.368 197.357 97.4267 197.651 97.4267 197.948Z" fill="#303135"/>
<path d="M336.977 207.841C336.977 207.99 276.627 208.098 202.228 208.098C127.829 208.098 67.4692 207.99 67.4692 207.841C67.4692 207.693 127.819 207.584 202.228 207.584C276.636 207.584 336.977 207.703 336.977 207.841Z" fill="#303135"/>
<path d="M359.623 360.418H49.374V361.407H359.623V360.418Z" fill="#303135"/>
<path d="M148.507 286.386H89.5615V290.333H148.507V286.386Z" fill="#303135"/>
<path d="M224.646 231.636H165.701V235.583H224.646V231.636Z" fill="#303135"/>
<path d="M312.322 246.327C312.322 246.465 279.496 246.584 239.012 246.584C198.528 246.584 165.701 246.465 165.701 246.327C165.701 246.188 198.518 246.06 239.012 246.06C279.505 246.06 312.322 246.178 312.322 246.327Z" fill="#303135"/>
<path d="M312.322 254.934C312.322 255.072 279.496 255.191 239.012 255.191C198.528 255.191 165.701 255.072 165.701 254.934C165.701 254.795 198.518 254.677 239.012 254.677C279.505 254.677 312.322 254.825 312.322 254.934Z" fill="#303135"/>
<path d="M312.322 263.541C312.322 263.69 279.496 263.799 239.012 263.799C198.528 263.799 165.701 263.69 165.701 263.541C165.701 263.393 198.518 263.284 239.012 263.284C279.505 263.284 312.322 263.403 312.322 263.541Z" fill="#303135"/>
<path d="M312.322 272.159C312.322 272.297 279.496 272.416 239.012 272.416C198.528 272.416 165.701 272.297 165.701 272.159C165.701 272.02 198.518 271.892 239.012 271.892C279.505 271.892 312.322 272.01 312.322 272.159Z" fill="#303135"/>
<path d="M312.322 280.766C312.322 280.905 279.496 281.023 239.012 281.023C198.528 281.023 165.701 280.905 165.701 280.766C165.701 280.628 198.518 280.509 239.012 280.509C279.505 280.509 312.322 280.618 312.322 280.766Z" fill="#303135"/>
<path d="M222.935 289.373C222.935 289.512 210.123 289.631 194.323 289.631C178.523 289.631 165.701 289.512 165.701 289.373C165.701 289.235 178.563 289.116 194.323 289.116C210.083 289.116 222.935 289.235 222.935 289.373Z" fill="#303135"/>
<path d="M311.244 306.083C311.244 306.232 289.666 306.341 263.062 306.341C236.459 306.341 214.881 306.232 214.881 306.083C214.881 305.935 236.449 305.826 263.062 305.826C289.676 305.826 311.244 305.945 311.244 306.083Z" fill="#303135"/>
<path d="M311.244 315.225C311.244 315.363 289.666 315.482 263.062 315.482C236.459 315.482 214.881 315.363 214.881 315.225C214.881 315.086 236.449 314.968 263.062 314.968C289.676 314.968 311.244 315.086 311.244 315.225Z" fill="#303135"/>
<path d="M311.244 324.367C311.244 324.505 289.666 324.624 263.062 324.624C236.459 324.624 214.881 324.505 214.881 324.367C214.881 324.228 236.449 324.109 263.062 324.109C289.676 324.109 311.244 324.218 311.244 324.367Z" fill="#303135"/>
<path d="M311.244 333.508C311.244 333.647 289.666 333.765 263.062 333.765C236.459 333.765 214.881 333.647 214.881 333.508C214.881 333.37 236.449 333.251 263.062 333.251C289.676 333.251 311.244 333.36 311.244 333.508Z" fill="#303135"/>
<path d="M148.655 305.213C148.655 305.352 135.793 305.471 119.964 305.471C104.134 305.471 91.2729 305.352 91.2729 305.213C91.2729 305.075 104.134 304.956 119.964 304.956C135.793 304.956 148.655 305.065 148.655 305.213Z" fill="#303135"/>
<path d="M148.655 312.386C148.655 312.535 135.793 312.643 119.964 312.643C104.134 312.643 91.2729 312.535 91.2729 312.386C91.2729 312.238 104.134 312.129 119.964 312.129C135.793 312.129 148.655 312.208 148.655 312.386Z" fill="#303135"/>
<path d="M148.655 319.569C148.655 319.707 135.793 319.826 119.964 319.826C104.134 319.826 91.2729 319.707 91.2729 319.569C91.2729 319.43 104.134 319.312 119.964 319.312C135.793 319.312 148.655 319.43 148.655 319.569Z" fill="#303135"/>
<path d="M148.655 326.741C148.655 326.889 135.793 326.998 119.964 326.998C104.134 326.998 91.2729 326.889 91.2729 326.741C91.2729 326.592 104.134 326.483 119.964 326.483C135.793 326.483 148.655 326.602 148.655 326.741Z" fill="#303135"/>
<path d="M148.655 333.973C148.655 334.112 135.793 334.23 119.964 334.23C104.134 334.23 91.2729 334.112 91.2729 333.973C91.2729 333.835 104.134 333.716 119.964 333.716C135.793 333.716 148.655 333.785 148.655 333.973Z" fill="#303135"/>
<path d="M148.655 218.754H89.5615V275.928H148.655V218.754Z" fill="#E0E0E0"/>
<path d="M94.1421 271.031L110.496 241.608L123.862 260.416L131.994 250.433L144.074 271.031H94.1421Z" fill="#6A7DFF"/>
<path d="M129.561 235.89C129.561 236.731 129.311 237.554 128.844 238.253C128.376 238.953 127.712 239.498 126.934 239.82C126.157 240.142 125.302 240.226 124.476 240.062C123.651 239.898 122.893 239.493 122.298 238.898C121.703 238.303 121.298 237.545 121.134 236.72C120.97 235.895 121.054 235.039 121.376 234.262C121.698 233.485 122.243 232.82 122.943 232.353C123.643 231.885 124.465 231.636 125.306 231.636C126.435 231.636 127.517 232.084 128.315 232.882C129.112 233.68 129.561 234.762 129.561 235.89Z" fill="#6A7DFF"/>
<path d="M144.074 271.189C144.07 271.113 144.07 271.037 144.074 270.962C144.074 270.784 144.074 270.566 144.074 270.289C144.074 269.685 144.074 268.825 144.074 267.717C144.074 265.451 144.074 262.176 144.005 258.011C144.005 249.661 143.936 237.769 143.886 223.483L144.124 223.73H94.2014C94.1322 223.79 94.7258 223.196 94.4784 223.453V236.315C94.4784 240.51 94.4784 244.625 94.4784 248.632C94.4784 256.636 94.4784 264.204 94.4784 271.169L94.2311 270.932L130.332 271.051L140.523 271.12H143.223H144.163C144.163 271.12 144.094 271.12 143.946 271.12H143.273H140.621L130.491 271.189L94.2311 271.308H93.9937V271.061C93.9937 264.135 93.9937 256.527 93.9937 248.523C93.9937 244.516 93.9937 240.401 93.9937 236.206V223.345L94.2806 223.058H144.203H144.45V223.295C144.45 237.641 144.351 249.582 144.322 257.972C144.322 262.117 144.322 265.372 144.262 267.628C144.262 268.716 144.262 269.557 144.262 270.16C144.262 270.427 144.262 270.635 144.262 270.793C144.262 270.952 144.084 271.199 144.074 271.189Z" fill="#303135"/>
<path d="M207.481 301.721H165.662V342.185H207.481V301.721Z" fill="#E0E0E0"/>
<path d="M168.907 338.722L180.472 317.906L189.94 331.213L195.688 324.139L204.246 338.722H168.907Z" fill="#6A7DFF"/>
<path d="M193.967 313.85C193.967 314.437 193.793 315.011 193.467 315.499C193.14 315.987 192.677 316.367 192.135 316.592C191.592 316.817 190.996 316.875 190.42 316.761C189.844 316.646 189.315 316.364 188.9 315.949C188.485 315.533 188.202 315.005 188.088 314.429C187.973 313.853 188.032 313.256 188.257 312.714C188.481 312.172 188.862 311.708 189.35 311.382C189.838 311.056 190.412 310.882 190.999 310.882C191.786 310.882 192.541 311.195 193.097 311.751C193.654 312.308 193.967 313.063 193.967 313.85Z" fill="#6A7DFF"/>
<path d="M204.246 338.841C204.243 338.785 204.243 338.729 204.246 338.673C204.246 338.554 204.246 338.396 204.246 338.198C204.246 337.772 204.246 337.208 204.246 336.377C204.246 334.775 204.246 332.42 204.197 329.501C204.197 323.565 204.197 315.176 204.118 305.075L204.286 305.243H168.946C168.946 305.243 169.322 304.867 169.144 305.055V322.863C169.144 328.532 169.144 333.884 169.144 338.821L168.966 338.643L194.521 338.732L201.723 338.781H203.633H201.753H194.59L168.927 338.871H168.758V338.702C168.758 333.756 168.758 328.413 168.758 322.744C168.758 319.915 168.758 316.996 168.758 314.028V304.966C168.58 305.134 168.996 304.708 168.956 304.758H204.296H204.464V304.926C204.464 315.077 204.395 323.526 204.375 329.472C204.375 332.44 204.375 334.705 204.375 336.298C204.375 337.07 204.375 337.664 204.375 338.089C204.375 338.277 204.375 338.425 204.375 338.544C204.352 338.65 204.308 338.751 204.246 338.841Z" fill="#303135"/>
<path d="M556.69 360.685L546.797 359.507L544.472 378.048L558.946 379.918L559.163 378.78C560.093 373.695 563.507 352.879 562.893 349.327C562.211 345.37 556.69 360.685 556.69 360.685Z" fill="#6A7DFF"/>
<path d="M562.033 348.002C562.211 348.002 561.528 354.987 560.509 363.545C559.49 372.102 558.531 379.028 558.353 379.008C558.175 378.988 558.867 372.083 559.876 363.465C560.885 354.848 561.855 347.982 562.033 348.002Z" fill="#303135"/>
<path d="M558.748 359.814C558.649 359.953 558.135 359.755 557.66 359.3C557.185 358.845 556.987 358.31 557.126 358.221C557.264 358.132 557.68 358.419 558.115 358.845C558.55 359.27 558.857 359.695 558.748 359.814Z" fill="#303135"/>
<path d="M559.54 358.706C559.46 358.865 558.877 358.706 558.303 358.271C557.729 357.836 557.413 357.282 557.541 357.183C557.67 357.084 558.155 357.351 558.689 357.757C559.223 358.162 559.629 358.548 559.54 358.706Z" fill="#303135"/>
<path d="M558.956 373.408C558.956 373.487 558.709 373.734 558.214 374.091C557.585 374.519 556.999 375.006 556.463 375.545C555.956 376.081 555.589 376.733 555.394 377.445C555.256 377.999 555.295 378.365 555.196 378.384C555.097 378.404 554.919 378.038 554.949 377.395C555.019 376.551 555.367 375.754 555.938 375.129C556.504 374.539 557.175 374.059 557.917 373.715C558.54 373.438 558.906 373.329 558.956 373.408Z" fill="#303135"/>
<path d="M556.898 359.538C557.056 359.468 557.373 359.835 557.492 360.379C557.61 360.923 557.492 361.368 557.314 361.368C557.135 361.368 556.977 360.972 556.868 360.487C556.76 360.003 556.73 359.607 556.898 359.538Z" fill="#303135"/>
<path d="M555.909 359.695C556.077 359.695 556.166 360.21 556.107 360.843C556.047 361.476 555.84 361.951 555.671 361.911C555.503 361.872 555.404 361.367 555.474 360.774C555.543 360.18 555.731 359.695 555.909 359.695Z" fill="#303135"/>
<path d="M550.655 379.522L495.816 373.962L382.101 376.505L412.335 352.127L488.228 348.486L554.583 357.628L550.655 379.522Z" fill="#303135"/>
<path d="M457.964 364.296C457.964 364.445 447.289 364.554 434.12 364.554C420.952 364.554 410.287 364.445 410.287 364.296C410.287 364.148 420.952 364.039 434.12 364.039C447.289 364.039 457.964 364.158 457.964 364.296Z" fill="#303135"/>
<path d="M452.661 350.188L456.559 374.714H464.038L458.349 349.921L452.661 350.188Z" fill="#303135"/>
<path d="M481.609 375.04L480.501 365.146L461.911 367.125L463.346 381.609H464.503C469.668 381.352 490.711 379.947 494.025 378.542C497.765 376.93 481.609 375.04 481.609 375.04Z" fill="#6A7DFF"/>
<path d="M494.411 377.504C494.411 377.682 487.486 378.602 478.928 379.562C470.37 380.522 463.405 381.155 463.385 380.977C463.366 380.799 470.311 379.888 478.859 378.929C487.407 377.969 494.391 377.366 494.411 377.504Z" fill="#303135"/>
<path d="M482.143 377.029C481.975 376.96 482.054 376.415 482.39 375.852C482.727 375.288 483.192 374.971 483.32 375.08C483.449 375.189 483.251 375.664 482.944 376.178C482.638 376.693 482.321 377.098 482.143 377.029Z" fill="#303135"/>
<path d="M483.419 377.504C483.251 377.504 483.271 376.86 483.568 376.198C483.865 375.535 484.3 375.119 484.448 375.208C484.597 375.297 484.448 375.832 484.152 376.445C483.855 377.058 483.588 377.593 483.419 377.504Z" fill="#303135"/>
<path d="M468.965 380.313C468.906 380.373 468.589 380.145 468.134 379.749C467.575 379.236 466.969 378.775 466.324 378.374C465.685 378.003 464.965 377.795 464.226 377.771C463.662 377.771 463.306 377.879 463.237 377.771C463.168 377.662 463.504 377.424 464.157 377.306C465.007 377.185 465.873 377.36 466.611 377.8C467.313 378.223 467.931 378.773 468.431 379.423C468.847 379.927 469.034 380.254 468.965 380.313Z" fill="#303135"/>
<path d="M482.005 375.159C482.113 375.297 481.826 375.683 481.322 375.93C480.817 376.178 480.333 376.158 480.333 375.99C480.333 375.821 480.639 375.574 481.084 375.356C481.53 375.139 481.906 375.01 482.005 375.159Z" fill="#303135"/>
<path d="M481.609 374.229C481.609 374.407 481.164 374.605 480.54 374.684C479.917 374.763 479.403 374.684 479.393 374.506C479.383 374.328 479.868 374.13 480.461 374.051C481.055 373.972 481.569 374.061 481.609 374.229Z" fill="#303135"/>
<path d="M372.84 261.87L388.67 261.583C388.888 259.752 389.194 252.619 389.194 252.619C389.194 252.619 395.823 251.996 396.308 245.446C396.792 238.897 396.585 223.74 396.585 223.74C392.952 221.907 388.896 221.076 384.835 221.333C380.774 221.59 376.855 222.927 373.483 225.204L372.494 225.897L372.84 261.87Z" fill="#B78876"/>
<path d="M394.398 234.93C394.226 234.746 394.13 234.504 394.13 234.252C394.13 234 394.226 233.758 394.398 233.574C394.534 233.43 394.71 233.33 394.904 233.286C395.097 233.243 395.299 233.259 395.484 233.332C395.668 233.405 395.826 233.532 395.938 233.696C396.049 233.86 396.109 234.054 396.109 234.252C396.109 234.45 396.049 234.644 395.938 234.808C395.826 234.972 395.668 235.099 395.484 235.172C395.299 235.245 395.097 235.261 394.904 235.218C394.71 235.175 394.534 235.074 394.398 234.93Z" fill="#303135"/>
<path d="M396.07 233.524C395.962 233.633 395.348 233.099 394.448 233.04C393.547 232.98 392.855 233.406 392.766 233.287C392.677 233.168 392.835 233.03 393.132 232.832C393.536 232.578 394.011 232.46 394.487 232.495C394.962 232.525 395.414 232.709 395.774 233.02C396.07 233.267 396.14 233.475 396.07 233.524Z" fill="#303135"/>
<path d="M385.623 233.673C385.764 233.84 385.846 234.05 385.856 234.269C385.865 234.489 385.801 234.705 385.674 234.884C385.548 235.063 385.365 235.194 385.155 235.258C384.945 235.322 384.72 235.314 384.515 235.236C384.374 235.182 384.247 235.097 384.144 234.986C384.041 234.876 383.965 234.744 383.921 234.599C383.877 234.455 383.867 234.302 383.891 234.153C383.915 234.004 383.973 233.863 384.06 233.739C384.147 233.616 384.262 233.515 384.394 233.443C384.527 233.37 384.674 233.33 384.825 233.323C384.976 233.317 385.126 233.345 385.265 233.405C385.403 233.466 385.525 233.558 385.623 233.673Z" fill="#303135"/>
<path d="M386.177 233.712C386.068 233.821 385.454 233.287 384.544 233.227C383.634 233.168 382.961 233.594 382.862 233.475C382.763 233.356 382.932 233.218 383.238 233.02C383.642 232.765 384.116 232.647 384.592 232.683C385.067 232.719 385.519 232.906 385.88 233.218C386.177 233.455 386.266 233.673 386.177 233.712Z" fill="#303135"/>
<path d="M389.382 241.4C389.858 241.244 390.356 241.171 390.857 241.182C391.094 241.182 391.292 241.123 391.312 241.004C391.336 240.766 391.291 240.526 391.183 240.312L390.58 238.432C389.999 236.829 389.581 235.172 389.333 233.485C390.076 235.014 390.66 236.615 391.074 238.264C391.272 238.917 391.45 239.54 391.638 240.154C391.773 240.466 391.798 240.815 391.707 241.143C391.667 241.231 391.606 241.309 391.531 241.371C391.455 241.433 391.367 241.477 391.272 241.499C391.138 241.517 391.001 241.517 390.866 241.499C390.37 241.548 389.868 241.515 389.382 241.4Z" fill="#303135"/>
<path d="M386.384 242.22C385.474 241.597 388.887 243.754 390.737 243.774C390.4 244.23 389.919 244.559 389.371 244.708C388.824 244.857 388.242 244.817 387.72 244.595C385.801 243.754 386.384 242.22 386.384 242.22Z" fill="white"/>
<path d="M389.234 252.52C386.199 252.387 383.271 251.353 380.825 249.552C380.825 249.552 382.556 254.4 389.145 254.212L389.234 252.52Z" fill="#A36957"/>
<path d="M397.059 221.375C397.436 221.363 397.804 221.264 398.136 221.087C398.469 220.91 398.756 220.659 398.976 220.354C399.196 220.049 399.343 219.697 399.406 219.326C399.469 218.954 399.447 218.574 399.339 218.213C399.232 217.852 399.044 217.52 398.789 217.243C398.534 216.967 398.219 216.752 397.868 216.616C397.516 216.48 397.139 216.426 396.764 216.459C396.389 216.492 396.026 216.61 395.704 216.805C396.49 216.157 397.131 215.352 397.584 214.44C397.802 213.982 397.874 213.468 397.791 212.967C397.708 212.467 397.473 212.003 397.119 211.64C396.706 211.357 396.224 211.19 395.724 211.159C395.224 211.127 394.725 211.232 394.279 211.462C392.884 212.066 391.786 213.243 390.322 213.738C388.858 214.232 387.295 213.985 385.761 214.054C384.052 214.087 382.397 214.658 381.032 215.687C380.36 216.206 379.82 216.876 379.454 217.642C379.088 218.409 378.907 219.25 378.925 220.099C376.778 219.842 374.403 219.812 372.712 221.148C372.031 221.754 371.493 222.502 371.135 223.34C370.778 224.178 370.61 225.085 370.644 225.996C370.809 227.814 371.242 229.597 371.93 231.289C372.05 231.784 372.272 232.249 372.583 232.654L373.384 237.363L376.303 237.304L376.115 227.509C376.115 227.509 375.818 223.374 379.38 223.74C382.941 224.106 387.76 228.113 394.675 227.094C395.806 227.034 396.908 226.72 397.9 226.174C398.381 225.871 398.772 225.446 399.033 224.941C399.294 224.437 399.415 223.872 399.384 223.305C399.324 222.744 399.048 222.228 398.614 221.868C398.179 221.508 397.622 221.331 397.059 221.375Z" fill="#303135"/>
<path d="M373.75 231.714C373.602 231.664 368.873 231.051 369.318 236.661C369.763 242.27 375.254 239.945 375.254 239.787C375.254 239.629 373.75 231.714 373.75 231.714Z" fill="#B78876"/>
<path d="M373.395 237.937C373.395 237.937 373.296 238.006 373.137 238.095C372.915 238.212 372.657 238.241 372.415 238.175C372.038 237.974 371.72 237.677 371.494 237.314C371.268 236.951 371.142 236.534 371.129 236.107C371.073 235.629 371.127 235.145 371.287 234.692C371.325 234.512 371.406 234.344 371.523 234.203C371.64 234.062 371.79 233.951 371.96 233.881C372.07 233.843 372.19 233.845 372.298 233.887C372.407 233.928 372.497 234.007 372.554 234.108C372.643 234.257 372.613 234.366 372.643 234.375C372.672 234.385 372.762 234.277 372.692 234.049C372.654 233.91 372.566 233.79 372.445 233.713C372.365 233.661 372.276 233.625 372.183 233.608C372.089 233.591 371.994 233.593 371.901 233.614C371.664 233.678 371.448 233.803 371.274 233.976C371.101 234.15 370.976 234.366 370.911 234.603C370.709 235.104 370.637 235.649 370.704 236.186C370.714 236.684 370.872 237.168 371.157 237.576C371.443 237.985 371.842 238.3 372.306 238.481C372.46 238.514 372.619 238.511 372.772 238.474C372.924 238.436 373.066 238.364 373.187 238.264C373.395 238.066 373.414 237.947 373.395 237.937Z" fill="#A36957"/>
<path d="M359.999 359.695C362.967 364.118 380.963 391.206 402.452 371.508C429.827 346.438 451.474 324.475 451.474 324.475L459.606 374.09L485.092 372.705C485.092 372.705 475.198 298.831 468.886 292.113C461.872 284.614 455.421 285.247 400.335 328.719L359.999 359.695Z" fill="#303135"/>
<path d="M451.157 275.561L474.96 258.188L476.128 260.058L452.482 277.639L451.157 275.561Z" fill="#303135"/>
<path d="M457.043 275.027C457.043 275.027 460.229 266.717 461.001 264.946C461.773 263.175 462.93 260.088 463.385 259.999C463.84 259.91 465.502 260.197 463.385 265.48C461.268 270.763 465.957 267.538 465.957 267.538L470.538 264.253C470.538 264.253 474.159 275.077 472.101 278.342C470.483 280.779 468.667 283.079 466.67 285.217L457.043 275.027Z" fill="#B78876"/>
<path d="M457.311 274.058C456.836 272.98 426.562 299.712 420.537 300.622L402.887 277.639C402.887 277.639 399.226 271.822 391.361 261.869C386.276 255.448 372.267 256.784 368.606 264.61C362.353 277.906 362.274 292.687 358.94 321.448L357.486 340.898C357.172 345.037 357.235 349.196 357.674 353.324C358.208 358.142 359.296 363.218 361.532 362.495L401.907 329.125L403.203 313.968C411.692 322.575 414.334 324.376 418.746 323.683C429.856 321.962 468.748 286.989 468.748 286.989C468.748 286.989 457.776 275.146 457.311 274.058Z" fill="#6A7DFF"/>
<path d="M463.534 291.847C462.746 291.373 462.018 290.804 461.367 290.155C459.712 288.678 458.162 287.088 456.727 285.396C455.283 283.711 453.96 281.926 452.77 280.054C452.24 279.299 451.792 278.49 451.434 277.64C452.033 278.333 452.579 279.07 453.066 279.846C454.056 281.221 455.441 283.101 457.113 285.06C458.785 287.019 460.407 288.701 461.614 289.888C462.299 290.495 462.941 291.149 463.534 291.847Z" fill="#303135"/>
<path d="M418.825 309.734C418.841 308.185 419.027 306.642 419.379 305.133C419.573 303.596 419.931 302.083 420.448 300.622C420.432 302.171 420.246 303.714 419.894 305.223C419.701 306.76 419.343 308.273 418.825 309.734Z" fill="#303135"/>
<path d="M422.684 308.784C422.072 307.526 421.62 306.196 421.338 304.826C420.901 303.501 420.618 302.13 420.497 300.74C421.108 301.998 421.56 303.328 421.843 304.698C422.278 306.023 422.56 307.394 422.684 308.784Z" fill="#303135"/>
<path d="M378.975 281.676C379.337 282.075 379.668 282.502 379.964 282.952L382.596 286.533C384.822 289.551 387.928 293.706 391.401 298.247L400.354 309.862L403.055 313.394C403.421 313.812 403.752 314.259 404.045 314.73C403.648 314.353 403.28 313.946 402.946 313.513C402.264 312.712 401.304 311.534 400.117 310.09C397.752 307.171 394.517 303.115 391.045 298.564C387.572 294.013 384.505 289.818 382.358 286.741C381.28 285.208 380.379 283.951 379.845 283.071C379.518 282.63 379.227 282.163 378.975 281.676Z" fill="#303135"/>
<path d="M373.81 301.225C372.764 300.632 371.808 299.892 370.971 299.029C370.02 298.285 369.178 297.413 368.468 296.437C369.52 297.029 370.48 297.773 371.317 298.643C372.27 299.377 373.11 300.247 373.81 301.225Z" fill="#303135"/>
<path d="M370.348 312.375C369.315 314.513 367.983 316.491 366.39 318.252C366.825 317.141 367.422 316.101 368.161 315.165C368.753 314.135 369.489 313.196 370.348 312.375Z" fill="#303135"/>
<path d="M375.215 327.76C375.106 327.849 374.225 326.958 373.236 325.781C372.569 325.11 372.027 324.326 371.633 323.466C371.742 323.377 372.623 324.267 373.612 325.445C374.28 326.114 374.823 326.899 375.215 327.76Z" fill="#303135"/>
<path d="M365.796 337.623C365.172 338.354 364.421 338.968 363.58 339.434C362.834 340.039 361.986 340.508 361.077 340.819C361.701 340.087 362.452 339.474 363.293 339.008C364.04 338.403 364.887 337.934 365.796 337.623Z" fill="#303135"/>
<path d="M378.965 340.235C377.916 339.778 377.008 339.051 376.333 338.128C375.53 337.302 374.96 336.278 374.681 335.16C374.819 335.091 375.541 336.397 376.719 337.772C377.896 339.147 379.054 340.107 378.965 340.235Z" fill="#303135"/>
<path d="M391.242 330.916C390.519 331.862 389.667 332.701 388.709 333.409C387.858 334.241 386.892 334.947 385.84 335.507C386.563 334.56 387.416 333.721 388.373 333.013C389.223 332.179 390.189 331.473 391.242 330.916Z" fill="#303135"/>
<path d="M365.974 348.912C364.284 348.136 362.941 346.762 362.205 345.053C362.324 344.974 363.066 345.924 364.105 346.973C365.143 348.021 366.064 348.813 365.974 348.912Z" fill="#303135"/>
<path d="M393.429 322.101C391.729 323.073 389.769 323.495 387.819 323.308C389.668 322.813 391.54 322.41 393.429 322.101Z" fill="#303135"/>
<path d="M384.287 311.702C384.083 312.908 383.751 314.088 383.298 315.224C382.976 316.366 382.589 317.489 382.14 318.588H382.032C382.032 318.529 382.091 318.509 382.111 318.509C382.131 318.509 382.111 318.509 382.111 318.618H382.002C382.118 317.43 382.377 316.261 382.774 315.135C383.076 313.912 383.588 312.75 384.287 311.702Z" fill="#303135"/>
<path d="M388.156 305.104C387.082 304.655 386.081 304.048 385.188 303.303C384.207 302.698 383.323 301.947 382.566 301.077C383.62 301.535 384.602 302.141 385.484 302.878C386.481 303.482 387.382 304.232 388.156 305.104Z" fill="#303135"/>
<path d="M380.241 290.561C379.941 291.542 379.443 292.452 378.776 293.232C378.241 294.106 377.534 294.863 376.699 295.458C377.142 294.546 377.7 293.695 378.361 292.925C378.878 292.056 379.51 291.26 380.241 290.561Z" fill="#303135"/>
<path d="M368.191 288.581C368.025 287.469 368.025 286.339 368.191 285.227C368.203 284.105 368.383 282.992 368.725 281.923C368.903 283.03 368.903 284.159 368.725 285.267C368.722 286.393 368.542 287.511 368.191 288.581Z" fill="#303135"/>
<path d="M363.491 310.386C363.223 309.202 363.116 307.988 363.175 306.775C363.074 305.568 363.141 304.353 363.373 303.164C363.755 305.554 363.795 307.985 363.491 310.386Z" fill="#303135"/>
<path d="M362.838 331.301C362.389 330.66 362.089 329.927 361.958 329.155C361.666 328.429 361.531 327.65 361.562 326.869C362.317 328.231 362.753 329.746 362.838 331.301Z" fill="#303135"/>
<path d="M379.499 272.268C378.713 273.169 377.86 274.009 376.946 274.781C376.155 275.678 375.292 276.508 374.364 277.264C374.902 276.171 375.66 275.201 376.59 274.414C377.399 273.503 378.39 272.771 379.499 272.268Z" fill="#303135"/>
<path d="M372.425 269.903C372.211 268.824 372.171 267.719 372.306 266.628C372.266 265.529 372.4 264.43 372.702 263.373C372.91 264.452 372.95 265.557 372.821 266.648C372.855 267.747 372.721 268.844 372.425 269.903Z" fill="#303135"/>
<path d="M389.758 267.548C387.898 266.424 386.102 265.199 384.376 263.878C386.458 264.614 388.313 265.879 389.758 267.548Z" fill="#303135"/>
<path d="M385.989 279.895C385.715 278.763 385.605 277.596 385.663 276.433C385.556 275.272 385.619 274.102 385.851 272.96C386.238 275.249 386.285 277.583 385.989 279.885V279.895Z" fill="#303135"/>
<path d="M396.14 287.118C394.143 286.72 392.163 286.245 390.204 285.693C392.28 285.567 394.347 286.063 396.14 287.118Z" fill="#303135"/>
<path d="M396.832 279.757C396.482 277.83 396.482 275.856 396.832 273.93C397.092 274.876 397.189 275.86 397.119 276.838C397.197 277.821 397.099 278.809 396.832 279.757Z" fill="#303135"/>
<path d="M404.569 292.114C404.254 290.917 404.11 289.681 404.144 288.443C404.008 287.214 404.041 285.973 404.242 284.753C404.687 287.18 404.797 289.657 404.569 292.114Z" fill="#303135"/>
<path d="M398.623 296.289C398.514 296.388 397.713 295.656 396.832 294.666C395.952 293.677 395.318 292.787 395.427 292.688C395.536 292.589 396.337 293.321 397.218 294.32C398.098 295.319 398.732 296.2 398.623 296.289Z" fill="#303135"/>
<path d="M406.142 301.987C405.208 302.305 404.229 302.466 403.243 302.462C402.261 302.634 401.257 302.634 400.275 302.462C401.202 302.134 402.18 301.973 403.164 301.987C404.148 301.804 405.158 301.804 406.142 301.987Z" fill="#303135"/>
<path d="M411.801 304.876C411.382 302.729 411.299 300.529 411.554 298.356C411.985 300.502 412.068 302.704 411.801 304.876Z" fill="#303135"/>
<path d="M417.381 315.709C416.194 315.936 414.976 315.936 413.789 315.709C412.583 315.662 411.398 315.383 410.297 314.888C411.488 314.883 412.677 314.989 413.849 315.204C415.04 315.255 416.223 315.424 417.381 315.709Z" fill="#303135"/>
<path d="M426.977 310.713C426.569 312.96 425.822 315.131 424.761 317.154C424.877 316.021 425.168 314.913 425.622 313.869C425.905 312.752 426.362 311.687 426.977 310.713Z" fill="#303135"/>
<path d="M433.893 301.968C431.836 301.752 429.83 301.194 427.957 300.315C430.012 300.543 432.016 301.101 433.893 301.968Z" fill="#303135"/>
<path d="M439.453 305.281C438.864 306.142 438.139 306.9 437.306 307.527C436.582 308.277 435.744 308.908 434.823 309.397C435.405 308.529 436.131 307.766 436.97 307.141C437.693 306.393 438.531 305.765 439.453 305.281Z" fill="#303135"/>
<path d="M441.679 297.1C441.132 296.122 440.795 295.04 440.69 293.924C440.406 292.832 440.359 291.692 440.551 290.58C440.867 291.643 441.082 292.732 441.194 293.835C441.458 294.906 441.62 295.999 441.679 297.1Z" fill="#303135"/>
<path d="M452.265 295.22C450.23 297.251 448.172 299.26 446.091 301.245C447.663 298.792 449.775 296.731 452.265 295.22Z" fill="#303135"/>
<path d="M453.314 291.431C452.178 291.271 451.073 290.937 450.039 290.442C448.941 290.119 447.9 289.628 446.952 288.987C448.084 289.152 449.184 289.485 450.217 289.977C451.315 290.306 452.359 290.796 453.314 291.431Z" fill="#303135"/>
<path d="M452.305 287.365C451.801 286.544 451.45 285.639 451.266 284.694C450.92 283.793 450.735 282.839 450.722 281.874C451.208 282.699 451.543 283.603 451.711 284.545C452.068 285.444 452.269 286.398 452.305 287.365Z" fill="#303135"/>
<path d="M396.921 315.868C396.802 315.957 395.932 314.977 395.061 313.691C394.434 312.961 393.945 312.123 393.617 311.218C394.361 311.827 394.991 312.564 395.477 313.394C396.095 314.131 396.583 314.967 396.921 315.868Z" fill="#303135"/>
<path d="M472.349 365.711C472.307 365.573 472.28 365.43 472.27 365.286C472.23 364.989 472.171 364.573 472.091 364.039C471.953 362.921 471.735 361.309 471.468 359.251C470.904 355.095 470.103 349.07 468.906 341.66C467.709 334.25 466.116 325.455 463.85 315.799C463.618 314.586 463.222 313.412 462.673 312.306C462.051 311.216 461.248 310.239 460.298 309.417C458.283 307.749 455.707 306.914 453.096 307.083C451.764 307.157 450.463 307.511 449.277 308.121C448.086 308.793 446.951 309.561 445.884 310.417L439.077 315.472C429.916 322.348 421.338 329.086 413.681 335.408C406.023 341.729 399.345 347.646 393.755 352.662C390.926 355.095 387.908 357.044 384.851 357.361C383.449 357.52 382.029 357.347 380.706 356.857C379.605 356.441 378.569 355.872 377.629 355.165C376.342 354.186 375.15 353.09 374.067 351.89L373.226 350.96C373.124 350.857 373.031 350.744 372.949 350.624C373.063 350.71 373.166 350.81 373.256 350.92L374.136 351.821C375.25 352.981 376.458 354.047 377.748 355.006C378.683 355.681 379.704 356.227 380.785 356.629C382.078 357.088 383.46 357.241 384.821 357.074C387.789 356.748 390.757 354.818 393.528 352.385C399.078 347.349 405.736 341.363 413.394 335.041C421.051 328.72 429.609 321.933 438.78 315.057L445.587 310.001C446.68 309.131 447.841 308.35 449.059 307.666C450.306 307.023 451.675 306.652 453.076 306.578C455.815 306.405 458.516 307.287 460.625 309.041C461.624 309.9 462.465 310.929 463.108 312.079C463.675 313.222 464.084 314.437 464.325 315.69C466.571 325.376 468.114 334.191 469.272 341.601C470.429 349.011 471.171 355.056 471.676 359.221C471.903 361.289 472.082 362.901 472.21 364.029C472.21 364.563 472.299 365.019 472.329 365.286C472.349 365.427 472.355 365.569 472.349 365.711Z" fill="#303135"/>
<path d="M483.905 365.156C483.584 365.255 483.251 365.308 482.915 365.315C482.272 365.384 481.342 365.463 480.195 365.542C477.889 365.701 474.714 365.869 471.201 366.017L462.208 366.403L459.478 366.502C459.149 366.54 458.817 366.54 458.488 366.502C458.808 366.397 459.141 366.337 459.478 366.324C460.121 366.245 461.051 366.156 462.198 366.057C464.503 365.869 467.679 365.681 471.191 365.522L480.195 365.196L482.925 365.137C483.251 365.103 483.58 365.109 483.905 365.156Z" fill="#303135"/>
<path d="M458.547 316.738C456.295 320.405 453.359 323.606 449.9 326.166C449.801 326.048 451.879 324.118 454.293 321.516C456.707 318.914 458.399 316.649 458.547 316.738Z" fill="#303135"/>
<path d="M459.507 319.746C458.173 320.764 456.764 321.68 455.293 322.487C453.909 323.447 452.454 324.301 450.939 325.039C452.164 323.877 453.534 322.879 455.016 322.071C456.406 321.106 457.916 320.324 459.507 319.746Z" fill="#303135"/>
<path d="M542.86 367.709C542.659 367.731 542.457 367.731 542.256 367.709L540.515 367.61L534.183 367.006L513.318 364.83C505.165 363.979 497.805 363.029 492.452 362.762C489.781 362.624 487.605 362.634 486.111 362.693L484.389 362.762C484.186 362.788 483.98 362.788 483.776 362.762C483.974 362.713 484.176 362.68 484.379 362.663C484.765 362.604 485.369 362.554 486.101 362.485C488.222 362.346 490.348 362.316 492.472 362.396C497.854 362.574 505.225 363.465 513.367 364.315L534.232 366.621L540.554 367.382L542.266 367.61C542.467 367.62 542.666 367.653 542.86 367.709Z" fill="#303135"/>
<path d="M541.603 378.77C541.464 378.77 541.91 373.823 542.592 367.68C543.275 361.536 543.967 356.638 544.106 356.658C544.244 356.678 543.799 361.605 543.117 367.739C542.434 373.873 541.741 378.78 541.603 378.77Z" fill="#303135"/>
</svg>
