<svg width="113" height="113" viewBox="0 0 113 113" fill="none" xmlns="http://www.w3.org/2000/svg">
<path d="M56.2466 0.13777C25.3386 0.0616889 0.215655 25.0612 0.139574 55.9692C0.0634929 86.8772 25.063 112 55.971 112.076C86.879 112.152 112.002 87.1528 112.078 56.2448C112.154 25.3368 87.1546 0.213851 56.2466 0.13777ZM55.9944 102.581C30.3335 102.518 9.57119 81.6535 9.63436 55.9926C9.66172 44.8737 13.5972 34.664 20.1383 26.6844L85.354 92.2219C77.3423 98.7236 67.1133 102.609 55.9944 102.581ZM92.0793 85.5296L26.8637 19.9921C34.8753 13.4904 45.1043 9.60518 56.2232 9.63255C81.8841 9.69572 102.646 30.5605 102.583 56.2214C102.556 67.3403 98.6204 77.55 92.0793 85.5296Z" fill="#FA383E"/>
</svg>
