<svg width="453" height="472" viewBox="0 0 453 472" fill="none" xmlns="http://www.w3.org/2000/svg">
<path d="M303.834 354.856C302.469 353.343 305.687 344.508 320.959 343.883C336.23 343.257 342.348 348.818 342.37 354.856C342.382 357.528 303.834 354.856 303.834 354.856Z" fill="#303135"/>
<path d="M296.295 123.705L279.33 228.626H434.271L452.942 122.58L296.295 123.705Z" fill="#F5F5F5"/>
<path d="M235.471 318.104C234.925 321.3 219.756 354.867 229.547 354.867H278.761C278.761 354.867 273.678 350.091 289.063 318.104H235.471Z" fill="#303135"/>
<path d="M203.632 206.066L183.517 323.619H353.184L373.993 201.938L203.632 206.066Z" fill="#303135"/>
<path d="M209.398 211.797L192.443 316.728H347.374L366.045 210.682L209.398 211.797Z" fill="#FAFAFA"/>
<path d="M373.993 201.938L377.2 204.098L355.595 326.815H187.997L183.517 323.619H353.184L373.993 201.938Z" fill="#303135"/>
<path d="M207.862 221.348C207.919 220.973 364.271 220.757 364.271 220.757L366.045 210.682L209.397 211.819L207.862 221.371" fill="#EBEBEB"/>
<path d="M215.947 216.527C215.95 216.813 215.867 217.093 215.709 217.332C215.552 217.571 215.327 217.758 215.064 217.869C214.8 217.98 214.509 218.011 214.228 217.956C213.948 217.902 213.689 217.765 213.486 217.564C213.283 217.362 213.144 217.105 213.088 216.824C213.031 216.544 213.059 216.253 213.168 215.988C213.277 215.724 213.462 215.498 213.7 215.338C213.937 215.179 214.217 215.094 214.503 215.094C214.884 215.094 215.25 215.245 215.52 215.513C215.791 215.782 215.944 216.146 215.947 216.527Z" fill="#303135"/>
<path d="M221.565 217.96C222.356 217.96 222.997 217.318 222.997 216.527C222.997 215.736 222.356 215.094 221.565 215.094C220.773 215.094 220.132 215.736 220.132 216.527C220.132 217.318 220.773 217.96 221.565 217.96Z" fill="#303135"/>
<path d="M230.059 216.527C230.061 216.814 229.978 217.094 229.82 217.334C229.662 217.573 229.437 217.76 229.172 217.87C228.908 217.981 228.617 218.011 228.336 217.955C228.054 217.9 227.796 217.762 227.593 217.56C227.391 217.357 227.253 217.099 227.198 216.817C227.142 216.536 227.172 216.245 227.283 215.98C227.393 215.716 227.58 215.491 227.819 215.333C228.059 215.175 228.339 215.092 228.626 215.094C229.005 215.097 229.368 215.249 229.636 215.517C229.904 215.785 230.056 216.148 230.059 216.527Z" fill="#303135"/>
<path d="M337.731 261.147H272.825L276.532 239.36H341.893L337.731 261.147Z" fill="#6A7DFF"/>
<path d="M272.825 261.147L271.563 268.754C271.563 268.754 280.091 260.851 279.955 260.851H272.882" fill="#6A7DFF"/>
<path d="M332.102 246.933C332.102 247.093 321.288 247.229 307.962 247.229C294.635 247.229 283.81 247.093 283.81 246.933C283.81 246.774 294.623 246.638 307.962 246.638C321.3 246.638 332.102 246.774 332.102 246.933Z" fill="#FAFAFA"/>
<path d="M331.466 252.198C331.466 252.357 320.652 252.494 307.325 252.494C293.998 252.494 283.173 252.357 283.173 252.198C283.173 252.039 293.987 251.902 307.325 251.902C320.663 251.902 331.466 252.027 331.466 252.198Z" fill="#FAFAFA"/>
<path d="M437.626 362.395H252.71V470.295H437.626V362.395Z" fill="#303135"/>
<path d="M336.947 362.395H252.71V470.295H336.947V362.395Z" fill="#303135"/>
<path d="M328.327 399.044C328.327 399.044 328.327 398.85 328.327 398.498C328.327 398.145 328.327 397.599 328.327 396.929C328.327 395.53 328.327 393.517 328.27 390.936C328.27 385.751 328.213 378.28 328.156 369.07L328.372 369.286L260.612 369.365C260.351 369.638 260.965 369.013 260.908 369.081V376.881C260.908 379.463 260.908 382.01 260.908 384.511C260.908 389.526 260.908 394.393 260.908 399.044L260.635 398.771L309.201 398.896L323.29 398.975H327.065H328.054H328.395C328.293 398.986 328.19 398.986 328.088 398.975H327.133H323.415L309.394 399.055L260.635 399.191H260.351V398.907C260.351 394.256 260.351 389.39 260.351 384.375V369.081C260.283 369.081 260.908 368.512 260.647 368.774L328.327 368.819H328.543V369.024C328.543 378.291 328.452 385.796 328.429 391.027C328.429 393.585 328.429 395.575 328.372 396.963C328.372 397.611 328.372 398.1 328.372 398.498C328.371 398.681 328.355 398.863 328.327 399.044Z" fill="#303135"/>
<path d="M297.364 384.057C297.364 384.057 297.295 383.807 297.159 383.386C296.969 382.804 296.598 382.299 296.101 381.942C295.743 381.682 295.325 381.516 294.887 381.459C294.448 381.401 294.002 381.454 293.588 381.612C293.089 381.798 292.658 382.133 292.354 382.571C292.05 383.009 291.887 383.529 291.887 384.063C291.887 384.596 292.05 385.116 292.354 385.554C292.658 385.992 293.089 386.327 293.588 386.513C294.003 386.665 294.448 386.715 294.885 386.658C295.323 386.6 295.74 386.437 296.101 386.183C296.598 385.827 296.969 385.321 297.159 384.739C297.295 384.318 297.307 384.057 297.364 384.057C297.42 384.057 297.455 384.318 297.364 384.796C297.232 385.472 296.865 386.081 296.329 386.513C295.923 386.843 295.439 387.064 294.923 387.153C294.407 387.243 293.877 387.198 293.384 387.025C292.77 386.81 292.237 386.409 291.861 385.878C291.484 385.348 291.282 384.713 291.282 384.063C291.282 383.412 291.484 382.777 291.861 382.247C292.237 381.716 292.77 381.315 293.384 381.1C293.877 380.928 294.406 380.884 294.921 380.971C295.436 381.059 295.92 381.275 296.329 381.601C296.867 382.037 297.233 382.649 297.364 383.329C297.455 383.807 297.398 384.068 297.364 384.057Z" fill="#303135"/>
<path d="M328.327 432.042C328.327 432.042 328.327 431.849 328.327 431.497C328.327 431.144 328.327 430.587 328.327 429.916C328.327 428.517 328.327 426.505 328.27 423.935C328.27 418.738 328.213 411.279 328.157 402.068L328.373 402.284L260.613 402.364L260.908 402.068V409.857C260.908 412.439 260.908 414.974 260.908 417.487C260.908 422.502 260.908 427.357 260.908 432.02L260.635 431.735L309.201 431.872L323.29 431.951H327.065H328.054C328.168 431.942 328.282 431.942 328.395 431.951H328.088H327.133H323.415L309.394 432.031L260.635 432.167H260.351V431.883C260.351 427.221 260.351 422.366 260.351 417.351V402.091L260.647 401.795L328.407 401.875H328.623V402.091C328.623 411.358 328.532 418.863 328.509 424.083C328.509 426.641 328.509 428.631 328.452 430.03C328.452 430.678 328.452 431.167 328.452 431.553C328.421 431.719 328.379 431.882 328.327 432.042Z" fill="#303135"/>
<path d="M297.364 417.055C297.364 417.055 297.295 416.794 297.159 416.373C296.969 415.792 296.598 415.286 296.101 414.929C295.74 414.675 295.323 414.512 294.885 414.455C294.448 414.397 294.003 414.447 293.588 414.599C293.089 414.786 292.658 415.12 292.354 415.558C292.05 415.996 291.887 416.517 291.887 417.05C291.887 417.583 292.05 418.103 292.354 418.541C292.658 418.979 293.089 419.314 293.588 419.5C294.001 419.657 294.446 419.71 294.885 419.655C295.323 419.599 295.741 419.437 296.101 419.182C296.602 418.823 296.973 418.313 297.159 417.726C297.295 417.306 297.307 417.055 297.364 417.055C297.42 417.055 297.455 417.317 297.364 417.783C297.235 418.464 296.868 419.077 296.329 419.512C295.922 419.84 295.437 420.058 294.921 420.146C294.406 420.233 293.876 420.187 293.384 420.012C292.77 419.797 292.237 419.396 291.861 418.866C291.484 418.335 291.282 417.7 291.282 417.05C291.282 416.399 291.484 415.765 291.861 415.234C292.237 414.703 292.77 414.303 293.384 414.088C293.877 413.914 294.407 413.87 294.923 413.959C295.439 414.049 295.923 414.269 296.329 414.599C296.868 415.034 297.235 415.647 297.364 416.328C297.455 416.794 297.398 417.055 297.364 417.055Z" fill="#303135"/>
<path d="M328.327 465.03C328.327 465.03 328.327 464.836 328.327 464.484C328.327 464.131 328.327 463.586 328.327 462.915C328.327 461.516 328.327 459.503 328.27 456.922C328.27 451.737 328.213 444.266 328.156 435.056L328.372 435.272L260.612 435.351C260.351 435.624 260.965 434.999 260.908 435.067V442.868C260.908 445.449 260.908 447.996 260.908 450.498C260.908 455.512 260.908 460.379 260.908 465.03L260.635 464.757L309.201 464.882L323.29 464.961H327.065H328.054H328.395C328.293 464.972 328.19 464.972 328.088 464.961H327.133H323.415L309.394 465.03L260.635 465.166H260.351V464.882C260.351 460.231 260.351 455.364 260.351 450.35V435.067C260.283 435.124 260.908 434.498 260.647 434.76L328.407 434.851H328.623V435.056C328.623 444.323 328.532 451.839 328.509 457.059C328.509 459.617 328.509 461.607 328.452 462.994C328.452 463.654 328.452 464.131 328.452 464.529C328.422 464.699 328.38 464.866 328.327 465.03Z" fill="#303135"/>
<path d="M297.364 450.043C297.364 450.043 297.295 449.793 297.159 449.372C296.969 448.79 296.598 448.284 296.101 447.928C295.742 447.671 295.324 447.506 294.886 447.449C294.448 447.391 294.002 447.443 293.588 447.598C293.089 447.784 292.658 448.119 292.354 448.557C292.05 448.995 291.887 449.515 291.887 450.048C291.887 450.582 292.05 451.102 292.354 451.54C292.658 451.978 293.089 452.313 293.588 452.499C294.002 452.654 294.448 452.705 294.886 452.648C295.324 452.59 295.742 452.426 296.101 452.169C296.598 451.812 296.969 451.307 297.159 450.725C297.295 450.304 297.307 450.043 297.364 450.043C297.42 450.043 297.455 450.304 297.364 450.782C297.231 451.461 296.865 452.072 296.329 452.51C295.92 452.836 295.436 453.052 294.921 453.14C294.406 453.227 293.877 453.183 293.384 453.011C292.77 452.796 292.237 452.395 291.861 451.864C291.484 451.334 291.282 450.699 291.282 450.048C291.282 449.398 291.484 448.763 291.861 448.232C292.237 447.702 292.77 447.301 293.384 447.086C293.877 446.914 294.406 446.87 294.921 446.957C295.436 447.045 295.92 447.261 296.329 447.587C296.867 448.022 297.233 448.635 297.364 449.315C297.455 449.793 297.398 450.054 297.364 450.043Z" fill="#303135"/>
<path d="M161.514 362.395H5.96973V470.295H161.514V362.395Z" fill="#303135"/>
<path d="M444.323 354.867H0V365.124H444.323V354.867Z" fill="#303135"/>
<path d="M19.7514 365.124H5.96973V470.295H19.7514V365.124Z" fill="#303135"/>
<path d="M178.718 192.568C178.627 192.137 178.562 191.7 178.525 191.261C178.359 190.092 177.974 188.965 177.388 187.94C177.008 187.254 176.429 186.699 175.728 186.348C175.332 186.178 174.895 186.13 174.472 186.209C174.049 186.288 173.659 186.491 173.351 186.792C172.034 188.427 171.316 190.463 171.316 192.563C171.316 194.662 172.034 196.698 173.351 198.333C173.657 198.636 174.047 198.841 174.47 198.922C174.893 199.003 175.331 198.957 175.728 198.788C176.428 198.43 177.005 197.872 177.388 197.185C177.974 196.16 178.359 195.033 178.525 193.865C178.561 193.429 178.626 192.996 178.718 192.568C178.792 193.009 178.792 193.458 178.718 193.899C178.642 195.123 178.305 196.318 177.729 197.401C177.318 198.182 176.679 198.821 175.898 199.232C175.435 199.454 174.915 199.529 174.409 199.448C173.879 199.344 173.386 199.105 172.976 198.754C171.508 197.027 170.702 194.835 170.702 192.568C170.702 190.302 171.508 188.109 172.976 186.382C173.382 186.024 173.877 185.78 174.409 185.677C174.916 185.602 175.434 185.677 175.898 185.894C176.679 186.305 177.318 186.943 177.729 187.724C178.306 188.811 178.644 190.009 178.718 191.238C178.791 191.678 178.791 192.128 178.718 192.568Z" fill="#303135"/>
<path d="M129.63 170.338L126.218 238.473L155.487 241.225L157.102 224.68C157.102 224.68 167.336 227.227 170.52 217.71C172.51 211.626 174.284 163.993 174.284 163.993L129.63 170.338Z" fill="#FFBE9D"/>
<path d="M180.504 171.02C178.013 176.945 168.621 182.028 168.621 182.028L167.086 197.117C165.689 197.021 164.287 197.021 162.89 197.117C163.64 190.033 154.532 191.431 153.6 196.241C152.713 200.881 158 203.985 158 203.985C154.35 209.58 152.872 212.536 147.687 217.778C142.092 223.464 139.079 223.918 133.291 223.748L126.912 223.452C126.912 223.452 124.638 218.006 122.989 205.145C122.182 198.959 117.303 190.852 118.725 180.788C122.636 152.213 154.259 157.284 154.259 157.284C166.131 148.051 186.371 157.091 180.504 171.02Z" fill="#303135"/>
<path d="M178.718 192.648C176.56 193.064 174.367 193.277 172.169 193.285C169.982 193.479 167.783 193.479 165.596 193.285C167.752 192.876 169.94 192.666 172.135 192.66C174.325 192.465 176.528 192.461 178.718 192.648Z" fill="#303135"/>
<path d="M271.961 272.689L261.329 279.273L257.428 288.369V280.41C257.428 280.41 260.317 276.998 262.682 274.508C265.047 272.018 263.353 270.289 262.682 269.437C262.011 268.584 251.834 280.41 251.834 280.41V287.232C247.092 281.399 244.898 283.4 244.17 284.458C243.442 285.515 251.834 293.429 251.834 293.429V295.84L210.136 318.264L199.163 290.973L176.751 302.742L190.135 335.138C191.057 337.38 192.452 339.396 194.222 341.051C195.993 342.706 198.099 343.96 200.398 344.729C202.696 345.498 205.133 345.764 207.544 345.508C209.954 345.252 212.281 344.48 214.366 343.246L263.432 314.238L266.696 308.792C267.829 306.915 268.495 304.793 268.64 302.606L270.335 278.101C273.314 276.236 271.961 272.689 271.961 272.689Z" fill="#FFBE9D"/>
<path d="M210.341 318.298C209.35 322.135 207.971 325.861 206.225 329.419C207.229 325.586 208.608 321.861 210.341 318.298Z" fill="#EB996E"/>
<path d="M270.335 278.102C269.707 278.425 269.061 278.713 268.401 278.966C267.649 279.322 266.977 279.829 266.428 280.455C265.878 281.081 265.463 281.812 265.206 282.604C264.356 284.894 263.322 287.111 262.113 289.234C262.78 286.896 263.632 284.614 264.66 282.411C264.993 281.481 265.52 280.632 266.207 279.921C266.796 279.374 267.478 278.935 268.22 278.625C268.875 278.291 269.599 278.112 270.335 278.102Z" fill="#EB996E"/>
<path d="M270.176 281.979C269.991 282.004 269.814 282.07 269.659 282.172C269.503 282.274 269.373 282.41 269.277 282.57C268.947 283.207 268.527 284.208 268.14 285.276C267.713 286.629 267.212 287.958 266.639 289.256C266.641 287.805 266.963 286.372 267.583 285.06C267.95 284.103 268.419 283.188 268.982 282.331C269.085 282.189 269.217 282.07 269.37 281.984C269.523 281.898 269.693 281.845 269.869 281.831C270.085 281.831 270.187 281.945 270.176 281.979Z" fill="#EB996E"/>
<path d="M170.054 298.592L174.818 314.727L205.054 301.082C203.917 297.671 198.959 282.65 189.396 258.771C186.777 252.223 182.518 246.46 177.027 242.035C171.537 237.61 165 234.672 158.046 233.504C148.153 231.855 137.385 230.57 129.095 230.673C120.865 230.749 112.911 233.648 106.561 238.884C100.212 244.12 95.8514 251.377 94.2089 259.441C91.6504 272.12 96.1306 280.501 93.2423 308.246L92.3213 378.03L173.056 380.998L170.054 298.592Z" fill="#6A7DFF"/>
<path d="M96.9945 307.507C96.9945 307.507 85.7713 308.166 81.3594 299.672C81.3594 299.672 93.4468 254.984 97.6654 249.719L96.9945 307.507Z" fill="#6A7DFF"/>
<g opacity="0.3">
<path opacity="0.3" d="M83.8496 308.291C94.4247 310.452 105.284 308.291 116.052 307.632C122.591 307.245 129.834 306.495 134.996 310.554C139.09 313.738 140.682 319.094 141.921 324.143C146.47 343.405 147.254 360.609 148.266 380.361L95.9598 379.224L83.8496 308.291Z" fill="#303135"/>
</g>
<path opacity="0.3" d="M97.6656 272.029L99.9284 304.641H93.0376L97.6656 272.029Z" fill="#303135"/>
<path d="M112.357 377.984L216.174 381.657C224.276 381.942 231.942 385.394 237.526 391.271C243.11 397.148 246.165 404.981 246.035 413.087L245.125 472H207.055L204.599 421.206L112.357 418.772V377.984Z" fill="#303135"/>
<path d="M147.175 431.849H136.964V469.226H147.175V431.849Z" fill="#303135"/>
<path d="M51.2832 313.101V403.16C51.2862 408.83 53.541 414.268 57.5519 418.277C61.5628 422.285 67.0014 424.537 72.6721 424.537H132.643V313.101C132.64 310.573 131.633 308.149 129.845 306.363C128.056 304.576 125.631 303.572 123.103 303.572H60.8121C58.2849 303.572 55.8612 304.576 54.0742 306.363C52.2871 308.15 51.2832 310.574 51.2832 313.101Z" fill="#303135"/>
<path d="M213.355 431.849H67.3052C67.3232 427.639 69.0084 423.607 71.9919 420.637C74.9754 417.666 79.0143 415.998 83.2246 415.998H197.56C201.764 415.998 205.796 417.668 208.769 420.641C211.741 423.613 213.411 427.645 213.411 431.849H213.355Z" fill="#303135"/>
<path d="M132.643 413.894C132.709 414.784 132.632 415.678 132.415 416.544C131.926 418.571 130.858 420.413 129.342 421.846C127.827 423.279 125.928 424.242 123.876 424.617C122.947 424.768 122.007 424.832 121.067 424.81H118.122H105H81.1205L73.8999 424.719H71.9327C71.7033 424.727 71.474 424.704 71.2505 424.651C71.4761 424.615 71.7042 424.596 71.9327 424.594L73.8999 424.537L81.1205 424.435L105 424.321H121.067C121.98 424.356 122.894 424.303 123.796 424.162C125.393 423.886 126.901 423.236 128.197 422.263C130.12 420.842 131.509 418.815 132.142 416.509C132.62 414.849 132.563 413.883 132.643 413.894Z" fill="#303135"/>
<path d="M151.018 432.156C148.045 432.456 145.055 432.554 142.069 432.452C139.079 432.554 136.086 432.456 133.109 432.156C136.086 431.863 139.079 431.764 142.069 431.86C145.055 431.764 148.045 431.863 151.018 432.156Z" fill="#303135"/>
<path d="M195.456 425.334C195.315 424.968 195.223 424.586 195.183 424.196C195.035 423.457 194.842 422.389 194.615 421.001C194.149 418.215 193.478 414.179 192.75 409.221C192.341 406.742 192.011 403.979 191.465 401.102C191.317 400.386 191.181 399.658 191.033 398.907C190.885 398.157 190.601 397.452 190.385 396.701C190.271 396.337 190.169 395.951 190.055 395.564C189.941 395.178 189.771 394.825 189.623 394.427C189.316 393.677 189.043 392.915 188.713 392.153C187.269 389.039 185.444 386.117 183.278 383.454C180.913 380.626 178.16 378.145 175.102 376.086C172.057 374.002 168.714 372.392 165.187 371.31C161.913 370.271 158.511 369.689 155.078 369.581C148.46 369.434 142.433 369.468 137.407 369.4C132.381 369.331 128.31 369.274 125.49 369.206C124.08 369.206 122.989 369.138 122.238 369.092C121.856 369.104 121.474 369.066 121.101 368.979C121.472 368.883 121.855 368.841 122.238 368.854L125.49 368.74C128.299 368.672 132.381 368.615 137.407 368.558C142.433 368.501 148.426 368.399 155.112 368.49C158.651 368.565 162.162 369.144 165.539 370.207C169.185 371.298 172.638 372.951 175.773 375.108C178.932 377.222 181.767 379.785 184.188 382.715C186.404 385.469 188.264 388.491 189.725 391.709C190.055 392.483 190.328 393.279 190.635 394.041C190.771 394.427 190.919 394.802 191.067 395.178C191.215 395.553 191.283 395.951 191.397 396.315C191.613 397.088 191.817 397.838 192.022 398.589C192.227 399.339 192.306 400.101 192.443 400.863C192.955 403.808 193.228 406.549 193.58 409.028C194.228 414.019 194.717 418.067 195.07 420.865C195.229 422.263 195.354 423.355 195.422 424.094C195.496 424.503 195.507 424.921 195.456 425.334Z" fill="#303135"/>
<path d="M11.1549 316.354C11.1549 316.354 9.31281 321.505 12.8378 325.234H20.1721C20.1721 325.234 19.524 316.911 11.1549 316.354Z" fill="#6A7DFF"/>
<path opacity="0.4" d="M11.1549 316.354C11.1549 316.354 9.31281 321.505 12.8378 325.234H20.1721C20.1721 325.234 19.524 316.911 11.1549 316.354Z" fill="#303135"/>
<path d="M23.6516 305.744C23.3446 305.38 17.0678 315.205 20.5928 325.234H27.5064C27.5064 325.234 30.2127 313.567 23.6516 305.744Z" fill="#6A7DFF"/>
<path d="M35.8982 316.354C33.6382 316.505 31.5186 317.504 29.9629 319.15C28.4072 320.797 27.5299 322.969 27.5063 325.234H34.4086C34.4086 325.234 37.4333 320.982 35.8982 316.354Z" fill="#6A7DFF"/>
<path d="M12.2691 324.848C9.88471 326.559 8.03537 328.913 6.93626 331.634C5.83715 334.356 5.53346 337.334 6.06053 340.221C7.83441 350.455 18.6369 354.867 18.6369 354.867H30.6106C30.6106 354.867 42.8003 349.489 42.5047 338.425C42.209 327.361 34.9543 325.007 34.9543 325.007L12.2691 324.848Z" fill="#303135"/>
<path d="M42.4592 337.185C42.1881 336.728 41.8552 336.311 41.4699 335.946C40.9131 335.501 40.2735 335.172 39.5884 334.977C38.9032 334.781 38.1861 334.724 37.4787 334.808C35.361 335.21 33.3601 336.08 31.6226 337.356C30.519 338.061 29.3499 338.659 28.1317 339.141C26.7875 339.652 25.3317 339.797 23.913 339.562C20.9907 339.061 18.6596 337.492 16.4764 336.446C14.6187 335.362 12.4834 334.848 10.336 334.968C8.90037 335.116 7.57118 335.793 6.60631 336.867C6.28389 337.29 6.00931 337.747 5.7876 338.231C5.7952 338.088 5.82197 337.946 5.86719 337.81C5.98504 337.402 6.17362 337.017 6.42438 336.673C7.37786 335.477 8.76139 334.702 10.2792 334.513C12.5368 334.315 14.8006 334.819 16.7606 335.957C19.0348 337.003 21.3091 338.515 24.0495 338.97C25.371 339.197 26.7291 339.068 27.9838 338.595C29.1728 338.132 30.315 337.557 31.3952 336.878C33.2085 335.591 35.2941 334.739 37.49 334.388C38.2475 334.314 39.0121 334.399 39.7347 334.638C40.4573 334.877 41.1219 335.264 41.6859 335.775C41.9793 336.063 42.2182 336.402 42.3909 336.776C42.4478 337.037 42.4819 337.174 42.4592 337.185Z" fill="#303135"/>
<path d="M42.6296 339.857C42.3568 339.408 42.0282 338.995 41.6517 338.629C41.1033 338.182 40.4699 337.85 39.7897 337.655C39.1095 337.459 38.3968 337.404 37.6946 337.492C35.6003 337.895 33.6227 338.761 31.9067 340.028C30.8317 340.738 29.689 341.34 28.4954 341.824C27.1635 342.337 25.7182 342.483 24.3109 342.245C21.4113 341.745 19.1029 340.176 16.9424 339.129C15.1133 338.047 13.0038 337.532 10.8817 337.651C9.45533 337.807 8.13796 338.488 7.18611 339.561C6.86857 339.98 6.6014 340.434 6.39014 340.915C6.39014 340.915 6.39013 340.767 6.45836 340.494C6.58138 340.107 6.76566 339.742 7.00417 339.414C7.94236 338.221 9.30918 337.442 10.8135 337.242C13.0331 337.04 15.2609 337.529 17.1926 338.64C19.3986 339.687 21.741 341.199 24.4018 341.654C25.7083 341.881 27.0518 341.751 28.2907 341.279C29.4621 340.817 30.5856 340.242 31.6452 339.561C33.4373 338.274 35.5045 337.421 37.6832 337.071C38.4245 337.005 39.1716 337.094 39.8765 337.333C40.5814 337.571 41.2287 337.955 41.7768 338.458C42.065 338.744 42.2999 339.079 42.4704 339.448C42.5458 339.574 42.5996 339.713 42.6296 339.857Z" fill="#303135"/>
<path d="M11.553 339.789C11.553 339.721 11.8714 339.516 12.2921 339.857C12.4192 339.967 12.5101 340.113 12.5527 340.275C12.5954 340.438 12.5877 340.609 12.5309 340.767C12.4609 340.962 12.3297 341.128 12.1569 341.242C11.9842 341.355 11.7792 341.41 11.5728 341.397C11.3665 341.384 11.1698 341.305 11.0124 341.171C10.8551 341.037 10.7455 340.855 10.7001 340.653C10.6602 340.497 10.6634 340.334 10.7095 340.179C10.7555 340.025 10.8427 339.886 10.9617 339.778C11.371 339.437 11.7235 339.596 11.7008 339.664C11.678 339.732 11.4506 339.789 11.2801 340.062C11.2432 340.13 11.224 340.206 11.224 340.284C11.224 340.361 11.2432 340.437 11.2801 340.505C11.3134 340.585 11.3663 340.655 11.4339 340.709C11.5015 340.762 11.5816 340.798 11.6667 340.812C11.7507 340.809 11.8324 340.785 11.9041 340.741C11.9758 340.697 12.035 340.636 12.076 340.562C12.1141 340.499 12.1342 340.426 12.1342 340.352C12.1342 340.278 12.1141 340.205 12.076 340.142C11.8259 339.88 11.5643 339.869 11.553 339.789Z" fill="#303135"/>
<path d="M25.1186 335.468C25.1186 335.4 25.4369 335.184 25.869 335.537C25.9917 335.649 26.0786 335.796 26.119 335.957C26.1594 336.119 26.1516 336.289 26.0965 336.446C26.0247 336.639 25.8937 336.805 25.7222 336.919C25.5506 337.034 25.3473 337.091 25.1413 337.083C24.9358 337.063 24.7413 336.981 24.5845 336.847C24.4278 336.712 24.3164 336.533 24.2657 336.332C24.2245 336.176 24.2282 336.01 24.2765 335.856C24.3247 335.701 24.4156 335.563 24.5386 335.457C24.948 335.116 25.3005 335.275 25.2664 335.343C25.2323 335.411 25.0162 335.468 24.8457 335.741C24.8116 335.81 24.7938 335.886 24.7938 335.963C24.7938 336.04 24.8116 336.116 24.8457 336.185C24.879 336.264 24.9319 336.334 24.9995 336.388C25.0671 336.442 25.1472 336.477 25.2323 336.492C25.3165 336.49 25.3987 336.466 25.4706 336.422C25.5425 336.378 25.6015 336.316 25.6416 336.242C25.6809 336.178 25.7018 336.106 25.7018 336.031C25.7018 335.957 25.6809 335.884 25.6416 335.821C25.3915 335.559 25.1299 335.548 25.1186 335.468Z" fill="#303135"/>
<path d="M38.2744 339.982C38.2744 339.914 38.5928 339.71 39.0249 340.051C39.1475 340.164 39.2344 340.31 39.2748 340.471C39.3153 340.633 39.3074 340.803 39.2523 340.96C39.1805 341.154 39.0495 341.319 38.878 341.434C38.7065 341.548 38.5032 341.605 38.2971 341.597C38.0931 341.578 37.8997 341.497 37.7431 341.365C37.5865 341.233 37.4743 341.056 37.4216 340.858C37.3807 340.699 37.3846 340.533 37.4328 340.376C37.4809 340.219 37.5715 340.079 37.6945 339.971C38.1038 339.63 38.4563 339.789 38.4222 339.857C38.3881 339.926 38.1721 339.994 38.0015 340.255C37.9537 340.323 37.9241 340.401 37.9157 340.483C37.9073 340.566 37.9203 340.648 37.9536 340.724C37.9868 340.8 38.039 340.865 38.1052 340.915C38.1714 340.964 38.2493 340.996 38.3313 341.006C38.4155 341.004 38.4977 340.98 38.5696 340.936C38.6415 340.892 38.7005 340.83 38.7406 340.756C38.7799 340.693 38.8008 340.62 38.8008 340.545C38.8008 340.471 38.7799 340.398 38.7406 340.335C38.5473 340.085 38.2971 340.062 38.2744 339.982Z" fill="#303135"/>
<path d="M384.409 314.409L388.309 354.867H408.026L412.745 314.409H384.409Z" fill="#303135"/>
<path d="M384.409 309.178C383.195 310.694 382.541 312.581 382.555 314.523H414.599C414.755 313.548 414.667 312.55 414.344 311.617C414.021 310.685 413.471 309.847 412.745 309.178H384.409Z" fill="#303135"/>
<path d="M388.059 305.471L386.979 309.474L411.165 309.656L409.562 305.426L388.059 305.471Z" fill="#303135"/>
<path d="M384.045 324.541C384.045 324.916 386.319 344.94 386.319 344.94H410.414L412.689 324.575L384.045 324.541Z" fill="#6A7DFF"/>
</svg>
